<svg width="34" height="34" viewBox="0 0 34 34" fill="none" xmlns="http://www.w3.org/2000/svg">
<path fill-rule="evenodd" clip-rule="evenodd" d="M18.1349 1.29478C17.7953 1.08028 17.4018 0.966431 17.0002 0.966431C16.5985 0.966431 16.205 1.08028 15.8654 1.29478L3.82375 8.90086C3.52071 9.09225 3.27101 9.35719 3.09787 9.67101C2.92473 9.98484 2.83379 10.3374 2.8335 10.6958V23.3013C2.8335 24.0294 3.2075 24.708 3.82375 25.0976L15.8654 32.7023C16.205 32.9168 16.5985 33.0306 17.0002 33.0306C17.4018 33.0306 17.7953 32.9168 18.1349 32.7023L30.1766 25.0976C30.4796 24.9062 30.7293 24.6413 30.9025 24.3275C31.0756 24.0136 31.1665 23.6611 31.1668 23.3027V10.6958C31.1668 10.3371 31.0759 9.98431 30.9028 9.67022C30.7296 9.35613 30.4798 9.09097 30.1766 8.89944L18.1349 1.29478ZM19.1308 19.7327C18.5612 20.4641 17.7774 20.9993 16.8889 21.2636C16.0004 21.5279 15.0515 21.5081 14.1747 21.207C13.298 20.9058 12.5372 20.3384 11.9986 19.5839C11.46 18.8294 11.1704 17.9255 11.1704 16.9985C11.1704 16.0715 11.46 15.1676 11.9986 14.4132C12.5372 13.6587 13.298 13.0912 14.1747 12.7901C15.0515 12.489 16.0004 12.4692 16.8889 12.7335C17.7774 12.9978 18.5612 13.533 19.1308 14.2644L23.021 12.0416C21.958 10.4569 20.4139 9.25576 18.6164 8.61532C16.8189 7.97488 14.8631 7.92906 13.0376 8.48461C11.2121 9.04017 9.61339 10.1677 8.47737 11.7009C7.34134 13.2341 6.72811 15.0917 6.72811 16.9999C6.72811 18.9081 7.34134 20.7658 8.47737 22.299C9.61339 23.8322 11.2121 24.9597 13.0376 25.5153C14.8631 26.0708 16.8189 26.025 18.6164 25.3846C20.4139 24.7441 21.958 23.543 23.021 21.9583L19.1308 19.7327ZM20.896 16.2916V15.2291H22.3127V16.2916H23.3752V17.7083H22.3127V18.7708H20.896V17.7083H19.8335V16.2916H20.896ZM25.8543 18.7708V17.7083H24.7918V16.2916H25.8543V15.2291H27.271V16.2916H28.3335V17.7083H27.271V18.7708H25.8543Z" fill="black"/>
</svg>
