<svg width="34" height="34" viewBox="0 0 34 34" fill="none" xmlns="http://www.w3.org/2000/svg">
<g clip-path="url(#clip0_141_32)">
<path d="M26.0312 0H7.96875C3.56773 0 0 3.56773 0 7.96875V26.0312C0 30.4323 3.56773 34 7.96875 34H26.0312C30.4323 34 34 30.4323 34 26.0312V7.96875C34 3.56773 30.4323 0 26.0312 0Z" fill="black"/>
<path d="M14.9665 6.77344H18.7669V24.3645C16.8174 24.7346 15.3861 24.8827 13.8315 24.8827C9.19182 24.8826 6.77344 22.7852 6.77344 18.7626C6.77344 14.888 9.34004 12.3711 13.3131 12.3711C13.93 12.3711 14.3989 12.4202 14.9665 12.5683V6.77344ZM14.9665 15.6282C14.5224 15.4804 14.1522 15.431 13.6834 15.431C11.7586 15.431 10.6478 16.6155 10.6478 18.6883C10.6478 20.7121 11.7091 21.8226 13.6587 21.8226C14.078 21.8226 14.4237 21.7979 14.9665 21.724V15.6282Z" fill="white"/>
<path d="M24.813 12.6424V21.4521C24.813 24.4877 24.591 25.9435 23.9246 27.2022C23.3076 28.4116 22.4932 29.1765 20.8151 30.0156L17.2861 28.3374C18.9642 27.5478 19.7786 26.857 20.2967 25.7955C20.8398 24.7097 21.0127 23.4511 21.0127 20.1443V12.6422L24.813 12.6424ZM21.0127 6.79358H24.813V10.6927H21.0127V6.79358Z" fill="white"/>
</g>
<defs>
<clipPath id="clip0_141_32">
<rect width="34" height="34" fill="white"/>
</clipPath>
</defs>
</svg>
