<svg width="34" height="34" viewBox="0 0 34 34" fill="none" xmlns="http://www.w3.org/2000/svg">
<path d="M19.8092 15.6938H22.8111C22.8808 15.6938 22.9476 15.6662 22.9969 15.6171C23.0463 15.568 23.0742 15.5013 23.0746 15.4317V12.7584C23.0746 12.6886 23.0469 12.6215 22.9974 12.5721C22.948 12.5227 22.881 12.4949 22.8111 12.4949H19.8092C19.7397 12.4949 19.673 12.5226 19.6239 12.5717C19.5747 12.6209 19.5471 12.6875 19.5471 12.757V15.4317C19.5471 15.5762 19.6647 15.6938 19.8092 15.6938ZM15.6244 8.00128H18.6249C18.6947 8.00128 18.7618 7.97351 18.8112 7.9241C18.8606 7.87468 18.8884 7.80766 18.8884 7.73778V5.06311C18.888 4.99347 18.8601 4.92681 18.8107 4.8777C18.7613 4.82859 18.6945 4.80102 18.6249 4.80103H15.6244C15.5549 4.80103 15.4882 4.82864 15.439 4.87779C15.3899 4.92694 15.3623 4.9936 15.3623 5.06311V7.73778C15.3623 7.88228 15.4784 8.00128 15.6244 8.00128ZM15.6244 11.8475H18.6249C18.6946 11.8472 18.7614 11.8193 18.8108 11.7699C18.8601 11.7206 18.888 11.6538 18.8884 11.584V8.91078C18.888 8.84114 18.8601 8.77448 18.8107 8.72537C18.7613 8.67626 18.6945 8.64869 18.6249 8.64869H15.6244C15.5549 8.64869 15.4882 8.6763 15.439 8.72546C15.3899 8.77461 15.3623 8.84127 15.3623 8.91078V11.584C15.3623 11.7285 15.4784 11.8461 15.6244 11.8475ZM11.4735 11.8475H14.4769C14.5463 11.8468 14.6126 11.8187 14.6614 11.7694C14.7102 11.72 14.7375 11.6534 14.7375 11.584V8.91078C14.7375 8.84127 14.7099 8.77461 14.6608 8.72546C14.6116 8.6763 14.545 8.64869 14.4754 8.64869H11.4749C11.4054 8.64869 11.3388 8.6763 11.2896 8.72546C11.2405 8.77461 11.2129 8.84127 11.2129 8.91078V11.584C11.2129 11.7285 11.3304 11.8461 11.4749 11.8475M7.27595 11.8475H10.2779C10.3475 11.8472 10.4142 11.8192 10.4633 11.7698C10.5124 11.7205 10.5399 11.6537 10.5399 11.584V8.91078C10.5399 8.84127 10.5123 8.77461 10.4632 8.72546C10.414 8.6763 10.3474 8.64869 10.2779 8.64869H7.27595C7.20631 8.64869 7.1395 8.67626 7.09012 8.72537C7.04075 8.77448 7.01282 8.84114 7.01244 8.91078V11.584C7.01244 11.7285 7.13145 11.8461 7.27595 11.8475ZM15.6244 15.6938H18.6249C18.6945 15.6938 18.7613 15.6662 18.8107 15.6171C18.8601 15.568 18.888 15.5013 18.8884 15.4317V12.7584C18.8884 12.6886 18.8606 12.6215 18.8112 12.5721C18.7618 12.5227 18.6947 12.4949 18.6249 12.4949H15.6244C15.5549 12.4949 15.4882 12.5226 15.439 12.5717C15.3899 12.6209 15.3623 12.6875 15.3623 12.757V15.4317C15.3623 15.5762 15.4784 15.6938 15.6244 15.6938ZM11.4735 15.6938H14.4769C14.5461 15.6934 14.6124 15.6656 14.6613 15.6165C14.7101 15.5674 14.7375 15.501 14.7375 15.4317V12.7584C14.7377 12.724 14.7311 12.6899 14.7181 12.658C14.7051 12.6262 14.686 12.5972 14.6618 12.5727C14.6376 12.5482 14.6088 12.5288 14.577 12.5154C14.5453 12.5021 14.5113 12.4951 14.4769 12.4949H11.4735C11.4043 12.4953 11.338 12.5231 11.2891 12.5722C11.2403 12.6213 11.2129 12.6878 11.2129 12.757V15.4317C11.2129 15.5762 11.3304 15.6938 11.4749 15.6938M7.27595 15.6938H10.2779C10.3474 15.6938 10.414 15.6662 10.4632 15.617C10.5123 15.5679 10.5399 15.5012 10.5399 15.4317V12.7584C10.5401 12.724 10.5335 12.6899 10.5205 12.658C10.5075 12.6262 10.4884 12.5972 10.4642 12.5727C10.44 12.5482 10.4112 12.5288 10.3795 12.5154C10.3477 12.5021 10.3137 12.4951 10.2793 12.4949H7.27595C7.20606 12.4949 7.13904 12.5227 7.08962 12.5721C7.04021 12.6215 7.01244 12.6886 7.01244 12.7584V15.4317C7.01244 15.5762 7.13145 15.6938 7.27595 15.6938ZM3.13928 15.6938H6.14261C6.21187 15.6934 6.27817 15.6656 6.32702 15.6165C6.37586 15.5674 6.40328 15.501 6.40328 15.4317V12.7584C6.40346 12.724 6.39687 12.6899 6.38387 12.658C6.37087 12.6262 6.35172 12.5972 6.32752 12.5727C6.30331 12.5482 6.27453 12.5288 6.2428 12.5154C6.21107 12.5021 6.17703 12.4951 6.14261 12.4949H3.13928C3.07002 12.4953 3.00372 12.5231 2.95487 12.5722C2.90603 12.6213 2.87861 12.6878 2.87861 12.757V15.4317C2.87861 15.5762 2.99336 15.6938 3.13928 15.6938ZM33.6642 14.0108C33.5721 13.9385 32.7122 13.2883 30.896 13.2883C30.4163 13.2892 29.9393 13.3303 29.4652 13.4115C29.1139 11.0032 27.1234 9.82736 27.0342 9.77636L26.5469 9.49444L26.2267 9.95769C25.8244 10.5782 25.5325 11.2639 25.3597 11.9835C25.0339 13.3577 25.2322 14.6497 25.9306 15.7533C25.0877 16.2236 23.7348 16.3384 23.4599 16.3483H1.06386C0.782559 16.3483 0.512736 16.4598 0.31356 16.6585C0.114384 16.8571 0.00211146 17.1266 0.00136132 17.4079C-0.0241115 19.3697 0.308092 21.3197 0.981695 23.1624C1.75378 25.1854 2.90128 26.6758 4.39586 27.5881C6.06753 28.6124 8.78753 29.1989 11.8688 29.1989C13.2611 29.2035 14.6508 29.0773 16.0196 28.822C17.9216 28.4712 19.7519 27.8062 21.4355 26.8543C22.823 26.0514 24.0716 25.0296 25.133 23.8283C26.9067 21.8194 27.9635 19.5825 28.7498 17.5949H29.0629C31.0065 17.5949 32.2008 16.8172 32.8595 16.1655C33.2973 15.7504 33.6387 15.2447 33.8611 14.6837L33.9999 14.2757L33.6642 14.0108Z" fill="black"/>
</svg>
