<svg width="34" height="34" viewBox="0 0 34 34" fill="none" xmlns="http://www.w3.org/2000/svg">
<path d="M33.6466 26.1482C32.4354 26.4563 31.6863 26.1615 31.0143 25.1521C29.5055 22.8916 27.8401 20.7347 26.233 18.538C26.0258 18.2538 25.8107 17.9749 25.5424 17.6216C23.6405 20.1875 21.7413 22.6313 19.959 25.1733C19.3215 26.0818 18.6521 26.4776 17.4621 26.1561L24.6127 16.5591L17.9562 7.89177C19.101 7.66864 19.8926 7.78286 20.5938 8.80817C22.1424 11.0713 23.8504 13.2255 25.553 15.5046C27.2663 13.2335 28.953 11.0766 30.5468 8.83474C31.1869 7.9263 31.8749 7.58099 33.0251 7.91567C32.1538 9.07114 31.3012 10.208 30.4432 11.3369C29.2851 12.859 28.1482 14.3996 26.9476 15.8897C26.5199 16.421 26.589 16.7663 26.9715 17.2683C29.1921 20.1876 31.3862 23.136 33.6466 26.1482ZM0.353184 16.3997C0.544434 15.4408 0.671934 14.4633 0.937559 13.523C2.53131 7.83067 9.06568 5.46396 13.5547 8.99146C16.1844 11.0607 16.8379 13.9772 16.7077 17.2657H1.88584C1.66272 23.1652 5.91006 26.7272 11.3235 24.9104C13.2227 24.2729 14.341 22.7854 14.9015 20.926C15.1857 19.9936 15.6558 19.8476 16.5324 20.1132C16.0835 22.4401 15.0662 24.3844 12.9412 25.601C9.75365 27.4232 5.2035 26.8335 2.81022 24.3021C1.39709 22.8146 0.796777 20.9632 0.531152 18.963C0.491309 18.6443 0.408965 18.3308 0.345215 18.0147C0.350527 17.4764 0.353184 16.9381 0.353184 16.3997ZM1.9124 16.004H15.3079C15.2202 11.738 12.564 8.70724 8.93287 8.68067C4.9485 8.6488 2.08506 11.6079 1.9124 16.004Z" fill="black"/>
</svg>
