<svg width="34" height="34" viewBox="0 0 34 34" fill="none" xmlns="http://www.w3.org/2000/svg">
<path fill-rule="evenodd" clip-rule="evenodd" d="M7.08317 1.41663C5.58028 1.41663 4.13894 2.01365 3.07623 3.07635C2.01353 4.13906 1.4165 5.5804 1.4165 7.08329V26.9166C1.4165 28.4195 2.01353 29.8609 3.07623 30.9236C4.13894 31.9863 5.58028 32.5833 7.08317 32.5833H26.9165C28.4194 32.5833 29.8607 31.9863 30.9234 30.9236C31.9861 29.8609 32.5832 28.4195 32.5832 26.9166V7.08329C32.5832 5.5804 31.9861 4.13906 30.9234 3.07635C29.8607 2.01365 28.4194 1.41663 26.9165 1.41663H7.08317ZM12.8773 5.66663H16.2263V12.3632H12.8788C12.4333 12.3725 11.9904 12.2927 11.5761 12.1287C11.1618 11.9646 10.7844 11.7195 10.4661 11.4078C10.1477 11.096 9.89473 10.7238 9.72201 10.3131C9.54928 9.90233 9.46027 9.46123 9.46017 9.01564C9.46008 8.57005 9.54891 8.12892 9.72146 7.71809C9.89401 7.30726 10.1468 6.93499 10.465 6.6231C10.7833 6.31121 11.1606 6.06596 11.5748 5.90172C11.989 5.73748 12.4318 5.65756 12.8773 5.66663ZM17.2577 12.8775V5.66663H20.8631C21.8018 5.69294 22.6933 6.08434 23.3479 6.75762C24.0026 7.43089 24.3688 8.33296 24.3688 9.27204C24.3688 10.2111 24.0026 11.1132 23.3479 11.7865C22.6933 12.4597 21.8018 12.8511 20.8631 12.8775H17.2577ZM20.6053 20.349C21.4935 20.349 22.3453 19.9961 22.9734 19.3681C23.6014 18.74 23.9543 17.8882 23.9543 17C23.9543 16.1118 23.6014 15.2599 22.9734 14.6319C22.3453 14.0038 21.4935 13.651 20.6053 13.651C19.717 13.651 18.8652 14.0038 18.2372 14.6319C17.6091 15.2599 17.2563 16.1118 17.2563 17C17.2563 17.8882 17.6091 18.74 18.2372 19.3681C18.8652 19.9961 19.717 20.349 20.6053 20.349ZM16.2278 20.349V13.651H12.8773C11.9891 13.651 11.1373 14.0038 10.5092 14.6319C9.88118 15.2599 9.52834 16.1118 9.52834 17C9.52834 17.8882 9.88118 18.74 10.5092 19.3681C11.1373 19.9961 11.9891 20.349 12.8773 20.349H16.2278ZM16.2278 24.9843V21.6367H12.8773C12.2149 21.6367 11.5674 21.8332 11.0166 22.2012C10.4658 22.5693 10.0366 23.0924 9.78313 23.7044C9.52969 24.3165 9.46346 24.9899 9.59279 25.6396C9.72213 26.2893 10.0412 26.886 10.5097 27.3543C10.9782 27.8226 11.5751 28.1415 12.2248 28.2705C12.8746 28.3996 13.548 28.3331 14.1599 28.0794C14.7719 27.8257 15.2948 27.3962 15.6626 26.8453C16.0304 26.2944 16.228 25.6467 16.2278 24.9843Z" fill="black"/>
</svg>
