<svg width="34" height="34" viewBox="0 0 34 34" fill="none" xmlns="http://www.w3.org/2000/svg">
<path d="M13.9955 3.00472L12.5165 4.48372L14.5458 6.51309L16.6708 8.63809C17.1548 8.39867 17.6919 8.28673 18.2313 8.31289C18.7706 8.33904 19.2943 8.50242 19.7529 8.78755C20.2114 9.07268 20.5896 9.47014 20.8517 9.94228C21.1137 10.4144 21.2509 10.9456 21.2502 11.4856C21.2388 11.9675 21.1266 12.4416 20.9208 12.8775L23.1096 15.0025C23.6836 14.6708 24.3553 14.5499 25.009 14.6604C25.6626 14.771 26.2572 15.1061 26.6902 15.6081C26.9928 15.8982 27.232 16.2479 27.393 16.635C27.5539 17.0221 27.6329 17.4383 27.6252 17.8574C27.6259 18.6944 27.2995 19.4985 26.7157 20.0982C26.422 20.405 26.068 20.6477 25.676 20.8112C25.284 20.9747 24.8624 21.0553 24.4377 21.0481C24.0176 21.0547 23.6006 20.9762 23.2116 20.8173C22.8227 20.6585 22.4699 20.4225 22.1746 20.1237C21.6742 19.6871 21.3412 19.09 21.2327 18.4349C21.1241 17.7797 21.2468 17.1072 21.5796 16.5325L19.4546 14.3437C19.3472 14.3923 19.2373 14.4348 19.1252 14.4712V21.25C19.7421 21.4697 20.2763 21.8741 20.6552 22.4081C21.042 22.9389 21.2503 23.5788 21.2502 24.2356C21.2585 24.6564 21.18 25.0743 21.0195 25.4634C20.859 25.8524 20.6199 26.2041 20.3173 26.4966C19.7387 27.0745 18.959 27.4061 18.1413 27.422C17.5505 27.4405 16.9663 27.2933 16.4548 26.997C15.9433 26.7007 15.5249 26.2672 15.247 25.7455C14.9691 25.2238 14.8427 24.6347 14.8821 24.0449C14.9216 23.4551 15.1253 22.8881 15.4702 22.4081C15.8491 21.8741 16.3834 21.4697 17.0002 21.25V14.4712C16.382 14.254 15.8471 13.8491 15.4702 13.3131C15.0821 12.7829 14.8736 12.1426 14.8752 11.4856C14.8743 11.0022 14.9871 10.5254 15.2046 10.0937L11.0608 5.94997L3.00814 13.9952C2.61324 14.3898 2.29995 14.8584 2.08617 15.3741C1.87239 15.8898 1.76231 16.4425 1.76221 17.0008C1.76211 17.5591 1.872 18.1119 2.0856 18.6277C2.2992 19.1435 2.61232 19.6121 3.00708 20.0068L13.9955 30.9952C14.7924 31.792 15.8733 32.2396 17.0002 32.2396C18.1272 32.2396 19.208 31.792 20.005 30.9952L30.9955 20.0047C31.7922 19.2077 32.2398 18.1269 32.2398 17C32.2398 15.873 31.7922 14.7922 30.9955 13.9952L20.005 3.00472C19.208 2.20797 18.1272 1.76038 17.0002 1.76038C15.8733 1.76038 14.7924 2.20797 13.9955 3.00472Z" fill="black"/>
</svg>
