<svg width="34" height="34" viewBox="0 0 34 34" fill="none" xmlns="http://www.w3.org/2000/svg">
<path d="M17.0002 2.83337C15.1398 2.83337 13.2976 3.19981 11.5788 3.91175C9.86003 4.62369 8.29831 5.6672 6.98282 6.98269C4.32605 9.63946 2.8335 13.2428 2.8335 17C2.8335 23.2617 6.89933 28.5742 12.5235 30.4584C13.2318 30.5717 13.4585 30.1325 13.4585 29.75V27.3559C9.53433 28.2059 8.6985 25.4575 8.6985 25.4575C8.04683 23.8142 7.126 23.375 7.126 23.375C5.83683 22.4967 7.22516 22.525 7.22516 22.525C8.64183 22.6242 9.39266 23.9842 9.39266 23.9842C10.6252 26.1375 12.7077 25.5 13.5152 25.16C13.6427 24.2392 14.011 23.6159 14.4077 23.2617C11.2627 22.9075 7.96183 21.6892 7.96183 16.2917C7.96183 14.7192 8.50016 13.4584 9.421 12.4525C9.27933 12.0984 8.7835 10.625 9.56266 8.71254C9.56266 8.71254 10.7527 8.33004 13.4585 10.1575C14.5777 9.84587 15.796 9.69004 17.0002 9.69004C18.2043 9.69004 19.4227 9.84587 20.5418 10.1575C23.2477 8.33004 24.4377 8.71254 24.4377 8.71254C25.2168 10.625 24.721 12.0984 24.5793 12.4525C25.5002 13.4584 26.0385 14.7192 26.0385 16.2917C26.0385 21.7034 22.7235 22.8934 19.5643 23.2475C20.0743 23.6867 20.5418 24.5509 20.5418 25.8684V29.75C20.5418 30.1325 20.7685 30.5859 21.491 30.4584C27.1152 28.56 31.1668 23.2617 31.1668 17C31.1668 15.1396 30.8004 13.2975 30.0885 11.5787C29.3765 9.85991 28.333 8.29819 27.0175 6.98269C25.702 5.6672 24.1403 4.62369 22.4215 3.91175C20.7027 3.19981 18.8606 2.83337 17.0002 2.83337Z" fill="black"/>
</svg>
