<svg width="34" height="34" viewBox="0 0 34 34" fill="none" xmlns="http://www.w3.org/2000/svg">
<path d="M17 2.83337C15.1396 2.83337 13.2975 3.19981 11.5787 3.91175C9.85991 4.62369 8.29819 5.6672 6.98269 6.98269C4.32593 9.63946 2.83337 13.2428 2.83337 17C2.83337 23.2617 6.89921 28.5742 12.5234 30.4584C13.2317 30.5717 13.4584 30.1325 13.4584 29.75V27.3559C9.53421 28.2059 8.69837 25.4575 8.69837 25.4575C8.04671 23.8142 7.12587 23.375 7.12587 23.375C5.83671 22.4967 7.22504 22.525 7.22504 22.525C8.64171 22.6242 9.39254 23.9842 9.39254 23.9842C10.625 26.1375 12.7075 25.5 13.515 25.16C13.6425 24.2392 14.0109 23.6159 14.4075 23.2617C11.2625 22.9075 7.96171 21.6892 7.96171 16.2917C7.96171 14.7192 8.50004 13.4584 9.42087 12.4525C9.27921 12.0984 8.78337 10.625 9.56254 8.71254C9.56254 8.71254 10.7525 8.33004 13.4584 10.1575C14.5775 9.84587 15.7959 9.69004 17 9.69004C18.2042 9.69004 19.4225 9.84587 20.5417 10.1575C23.2475 8.33004 24.4375 8.71254 24.4375 8.71254C25.2167 10.625 24.7209 12.0984 24.5792 12.4525C25.5 13.4584 26.0384 14.7192 26.0384 16.2917C26.0384 21.7034 22.7234 22.8934 19.5642 23.2475C20.0742 23.6867 20.5417 24.5509 20.5417 25.8684V29.75C20.5417 30.1325 20.7684 30.5859 21.4909 30.4584C27.115 28.56 31.1667 23.2617 31.1667 17C31.1667 15.1396 30.8003 13.2975 30.0883 11.5787C29.3764 9.85991 28.3329 8.29819 27.0174 6.98269C25.7019 5.6672 24.1402 4.62369 22.4214 3.91175C20.7026 3.19981 18.8604 2.83337 17 2.83337Z" fill="black"/>
</svg>
