<svg width="34" height="34" viewBox="0 0 34 34" fill="none" xmlns="http://www.w3.org/2000/svg">
<path d="M20.7114 11.8292C20.1164 12.2259 18.2323 13.3025 17.9489 13.515C17.3964 13.9542 16.8864 13.9259 16.3339 13.5009C16.0506 13.2742 14.1664 12.1975 13.5714 11.815C12.8914 11.3759 12.9339 10.8234 13.6848 10.5117C16.0081 9.53421 18.3314 9.60504 20.6406 10.5542C21.3348 10.8517 21.3631 11.4042 20.7114 11.8292ZM30.9398 22.1425C29.6223 19.1817 27.8231 16.49 25.4998 14.1242C24.7809 13.3785 24.2641 12.4619 23.9981 11.4609C23.8564 10.9934 23.7573 10.5117 23.6581 10.03C23.3748 8.78337 23.2473 7.50837 22.6664 6.33254C21.6323 4.09421 19.8331 2.93254 17.2264 2.83337C14.6623 2.90421 12.7498 3.98087 11.6306 6.23337C11.3331 6.84254 11.1206 7.48004 10.9789 8.13171C10.7381 9.20837 10.5256 10.3275 10.2706 11.4184C10.0581 12.3392 9.63311 13.1325 8.91061 13.8409C6.62978 16.065 4.80228 18.615 3.41394 21.42C3.21561 21.8309 3.01728 22.2417 2.88978 22.6667C2.62061 23.6017 3.30061 24.2534 4.29228 24.0267C4.91561 23.8992 5.53894 23.7717 6.13394 23.5875C6.71478 23.375 6.94144 23.5167 7.08311 24.0834C8.00394 27.1292 10.0156 29.2684 13.0898 30.4584C18.9264 32.6684 25.7406 29.5234 27.2139 23.97C27.3131 23.5875 27.4548 23.4459 27.8798 23.5875C28.5314 23.7859 29.1973 23.9275 29.8631 24.0834C30.5573 24.2109 31.0673 23.8567 31.1664 23.1767C31.2089 22.8084 31.0814 22.4825 30.9398 22.1425Z" fill="black"/>
</svg>
