<svg width="34" height="34" viewBox="0 0 34 34" fill="none" xmlns="http://www.w3.org/2000/svg">
<path fill-rule="evenodd" clip-rule="evenodd" d="M28.931 24.5607C27.3896 24.5182 26.194 24.6755 25.191 25.0976C24.9034 25.2138 24.4401 25.2138 24.4019 25.5765C24.5577 25.7295 24.5747 25.9788 24.7107 26.1899C24.9416 26.5724 25.3468 27.0895 25.7123 27.3572L26.9448 28.2384C27.697 28.6988 28.5456 28.9666 29.278 29.4256C29.7016 29.6947 30.1252 30.039 30.5502 30.3266C30.7655 30.4796 30.8959 30.7289 31.1665 30.8252V30.7671C31.0319 30.5943 30.9922 30.3464 30.859 30.1537L30.2796 29.5984C29.715 28.8544 29.0388 28.2021 28.275 27.6646C27.6588 27.2425 26.3101 26.6687 26.0594 25.9604L26.0211 25.9179C26.4447 25.8754 26.9462 25.7252 27.3514 25.6105C28.0073 25.4391 28.6037 25.4759 29.278 25.3045L30.2031 25.0353V24.8653C29.856 24.5196 29.6053 24.0592 29.2398 23.7348C28.2423 22.8683 27.1789 22.0806 26.0594 21.3789C25.4615 20.9964 24.6909 20.7456 24.0548 20.4212C23.8225 20.3065 23.4385 20.2484 23.304 20.0571C22.9555 19.6364 22.7642 19.0796 22.5135 18.5824L20.9325 15.249C20.5854 14.5024 20.3729 13.7558 19.9493 13.0673C17.966 9.80898 15.8055 7.83698 12.4905 5.90181C11.778 5.49948 10.9308 5.32665 10.0284 5.11698L8.58337 5.03906C8.27453 4.9059 7.9657 4.54181 7.69654 4.36898C6.59862 3.67906 3.76528 2.1859 2.95495 4.15506C2.43362 5.3989 3.72562 6.62431 4.16479 7.25756C4.49204 7.69673 4.91562 8.1954 5.14795 8.69406C5.27687 9.0199 5.32079 9.36415 5.45537 9.7084C5.7642 10.5513 6.0532 11.4906 6.45837 12.2754C6.6737 12.6777 6.90037 13.0999 7.17095 13.464C7.32537 13.6779 7.59595 13.77 7.65262 14.1156C7.38345 14.4981 7.36362 15.0719 7.2092 15.5521C6.51504 17.7168 6.7842 20.3971 7.76879 21.9909C8.07762 22.4697 8.80437 23.5237 9.79179 23.1214C10.6602 22.7757 10.4661 21.6849 10.7169 20.7272C10.775 20.4977 10.7367 20.3447 10.8515 20.1903V20.2328L11.642 21.8237C12.2398 22.7616 13.281 23.7391 14.148 24.3907C14.6099 24.735 14.9754 25.3286 15.5534 25.5382V25.4816H15.5165C15.4004 25.3101 15.2261 25.2322 15.0717 25.0991C14.7071 24.7435 14.3721 24.3588 14.0701 23.9487C13.2554 22.849 12.5337 21.6833 11.9125 20.4637C11.6037 19.8687 11.3331 19.2185 11.0838 18.6249C10.9662 18.3954 10.9662 18.0497 10.775 17.935C10.4845 18.3557 10.0624 18.7212 9.84845 19.2383C9.48295 20.06 9.4447 21.0757 9.31012 22.1297C9.2322 22.1496 9.26762 22.1297 9.2322 22.1722C8.61595 22.0206 8.40345 21.3874 8.17254 20.8519C7.59454 19.4919 7.4982 17.3088 7.99829 15.7377C8.13429 15.3354 8.71229 14.0703 8.48137 13.6878C8.3652 13.3237 7.97987 13.1141 7.76737 12.8265C7.49946 12.4398 7.26712 12.0297 7.0732 11.6011C6.61279 10.5272 6.38045 9.34006 5.87895 8.26765C5.64804 7.76898 5.24287 7.2519 4.91562 6.7929C4.5487 6.27581 4.14495 5.91173 3.85595 5.29831C3.75962 5.0844 3.62503 4.74298 3.77945 4.51348C3.81628 4.36048 3.8942 4.29815 4.04862 4.26415C4.29795 4.05023 5.01195 4.32081 5.2627 4.43556C5.97529 4.72315 6.57312 4.9909 7.17095 5.39323C7.44012 5.58448 7.72912 5.94856 8.07762 6.0449H8.48137C9.09904 6.17948 9.79179 6.0874 10.3698 6.26023C11.3898 6.58606 12.3163 7.06348 13.1465 7.58198C15.6962 9.19348 17.7713 11.4544 19.1588 14.1326C19.3897 14.5732 19.4846 14.9756 19.6971 15.436C20.1037 16.3738 20.6038 17.3315 21.009 18.2509C21.4141 19.1519 21.7995 20.0713 22.3775 20.8179C22.6665 21.2202 23.8225 21.4313 24.3424 21.6424C24.7277 21.8124 25.3255 21.9682 25.674 22.1779C26.3271 22.5802 26.983 23.0406 27.5993 23.4812C27.9067 23.7107 28.8715 24.1896 28.9295 24.5721L28.931 24.5607ZM9.27612 7.91631C9.01006 7.91461 8.74487 7.94698 8.48704 8.01265V8.05515H8.52529C8.6797 8.36115 8.95029 8.57223 9.14154 8.8414L9.58495 9.76081L9.6232 9.71831C9.89237 9.52565 10.0284 9.21965 10.0284 8.76065C9.9122 8.62606 9.89378 8.49148 9.79745 8.35831C9.68128 8.16706 9.43053 8.07073 9.27612 7.91773" fill="black"/>
</svg>
