<svg width="34" height="34" viewBox="0 0 34 34" fill="none" xmlns="http://www.w3.org/2000/svg">
<g clip-path="url(#clip0_141_28)">
<path d="M16.9998 33.9376C16.5153 33.9376 16.0648 33.8115 15.6441 33.5934L11.353 31.1312C10.7084 30.7884 11.0314 30.6637 11.2255 30.6014C12.0953 30.3209 12.2568 30.2585 13.1607 29.7585C13.257 29.6961 13.3873 29.7273 13.4837 29.7896L16.7746 31.6922C16.9021 31.7545 17.065 31.7545 17.1613 31.6922L30.0346 24.4899C30.1621 24.4275 30.2273 24.3029 30.2273 24.147V9.77353C30.2273 9.6177 30.1635 9.49303 30.0346 9.4307L17.1613 2.26095C17.0324 2.19862 16.8709 2.19862 16.7746 2.26095L3.90134 9.4307C3.77242 9.49303 3.70725 9.64887 3.70725 9.77353V24.147C3.70725 24.2717 3.77242 24.4275 3.90134 24.4899L7.4175 26.4548C9.3215 27.3898 10.5143 26.299 10.5143 25.2081V11.0216C10.5143 10.8346 10.6758 10.6476 10.9025 10.6476H12.5473C12.7413 10.6476 12.934 10.8035 12.934 11.0216V25.2067C12.934 27.6703 11.5471 29.104 9.12742 29.104C8.38509 29.104 7.80425 29.104 6.1595 28.3248L2.77225 26.4548C2.36438 26.23 2.02377 25.9006 1.78549 25.5004C1.5472 25.1003 1.41983 24.6439 1.4165 24.1782V9.8047C1.4165 8.8697 1.93217 7.99703 2.77225 7.52953L15.6455 0.325784C16.0648 0.111415 16.5289 -0.000366211 16.9998 -0.000366211C17.4707 -0.000366211 17.9349 0.111415 18.3542 0.325784L31.2288 7.52812C32.0675 7.99562 32.5832 8.86828 32.5832 9.80328V24.1768C32.5832 25.1118 32.0675 25.9845 31.2288 26.4534L18.3556 33.6543C17.9277 33.8398 17.4662 33.9353 16.9998 33.9348M20.9679 24.0507C15.3225 24.0507 14.1608 21.5574 14.1608 19.4366C14.1608 19.2496 14.3223 19.0626 14.5476 19.0626H16.2249C16.419 19.0626 16.5791 19.1873 16.5791 19.3743C16.8383 21.0261 17.5807 21.8365 21.0005 21.8365C23.7106 21.8365 24.8723 21.2443 24.8723 19.8418C24.8723 19.0315 24.5493 18.4393 20.3233 18.0341C16.8058 17.6899 14.6128 16.9433 14.6128 14.2304C14.6128 11.7045 16.8058 10.207 20.4848 10.207C24.6144 10.207 26.6473 11.5798 26.9052 14.5732C26.902 14.6745 26.8679 14.7724 26.8074 14.8537C26.7437 14.916 26.6473 14.9784 26.5496 14.9784H24.8723C24.7908 14.9764 24.7121 14.948 24.6483 14.8974C24.5844 14.8468 24.5387 14.7767 24.5181 14.6979C24.1299 12.9837 23.1298 12.4213 20.4848 12.4213C17.5155 12.4213 17.1613 13.4186 17.1613 14.168C17.1613 15.0719 17.5807 15.3524 21.5813 15.851C25.5494 16.3497 27.4208 17.0665 27.4208 19.7469C27.3883 22.4924 25.0663 24.0507 20.9679 24.0507Z" fill="black"/>
</g>
<defs>
<clipPath id="clip0_141_28">
<rect width="34" height="34" fill="white"/>
</clipPath>
</defs>
</svg>
