<svg width="34" height="34" viewBox="0 0 34 34" fill="none" xmlns="http://www.w3.org/2000/svg">
<g clip-path="url(#clip0_141_16)">
<mask id="mask0_141_16" style="mask-type:luminance" maskUnits="userSpaceOnUse" x="0" y="0" width="34" height="34">
<path d="M0 0H34V34H0V0Z" fill="white"/>
</mask>
<g mask="url(#mask0_141_16)">
<path d="M16.8782 0C8.245 0 8.78333 3.76267 8.78333 3.76267L8.79325 7.66133H17.0298V8.8315H5.525C5.525 8.8315 0 8.20108 0 16.9561C0 25.7111 4.82092 25.3994 4.82092 25.3994H7.69675V21.3378C7.69675 21.3378 7.54233 16.4928 12.4426 16.4928H20.6111C20.6111 16.4928 25.2011 16.5665 25.2011 12.0332V4.53617C25.2011 4.53617 25.8981 0 16.8782 0ZM12.3363 2.62083C13.1552 2.62083 13.8182 3.28667 13.8182 4.11117C13.8182 4.93425 13.1552 5.60008 12.3363 5.60008C11.5175 5.60008 10.8545 4.93425 10.8545 4.11117C10.8545 3.28667 11.5161 2.62083 12.3363 2.62083Z" fill="black"/>
<path d="M17.1235 34C25.7538 34 25.2155 30.2374 25.2155 30.2374L25.2056 26.3387H16.9691V25.1685H28.4767C28.4767 25.1685 34.0017 25.799 34.0017 17.044C34.0017 8.28895 29.1793 8.60062 29.1793 8.60062H26.3035V12.6622C26.3035 12.6622 26.4579 17.5072 21.5577 17.5072H13.3906C13.3906 17.5072 8.80058 17.4335 8.80058 21.9669V29.4639C8.80058 29.4639 8.10357 34 17.1235 34ZM21.6653 31.3792C20.8451 31.3792 20.1835 30.7134 20.1835 29.8889C20.1835 29.0658 20.8451 28.4 21.6653 28.4C22.4842 28.4 23.1472 29.0658 23.1472 29.8889C23.1472 30.7134 22.4842 31.3792 21.6653 31.3792Z" fill="black"/>
</g>
</g>
<defs>
<clipPath id="clip0_141_16">
<rect width="34" height="34" fill="white"/>
</clipPath>
</defs>
</svg>
