<svg width="34" height="34" viewBox="0 0 34 34" fill="none" xmlns="http://www.w3.org/2000/svg">
<path d="M25.9577 12.7599C25.6376 12.7132 25.3627 12.5758 25.0426 12.4851C25.0893 12.3023 25.0893 12.1196 25.18 11.8448C25.8203 8.55526 25.3642 5.95142 23.9007 5.03626C22.4387 4.21459 20.0616 5.08159 17.6858 7.13859C17.5017 7.32134 17.1829 7.50409 17.0002 7.77751C16.8627 7.64151 16.68 7.50409 16.5426 7.32134C14.0294 5.08301 11.5616 4.16784 10.0089 5.03626C8.5455 5.85792 8.08933 8.37251 8.72825 11.4339C8.775 11.7541 8.86566 12.0743 8.91241 12.3477C8.59225 12.3944 8.22533 12.5318 7.90658 12.6678C4.93583 13.719 2.8335 15.4105 2.8335 17.0099C2.8335 18.7453 5.07183 20.4822 8.13466 21.4866C8.40808 21.5333 8.63758 21.6708 8.911 21.6708C8.86566 21.9909 8.72825 22.3097 8.72825 22.6766C8.13325 25.6927 8.59225 28.1138 10.0542 28.9368C11.5162 29.8506 14.0747 28.9368 16.4519 26.7438C16.6347 26.5597 16.8174 26.4237 17.0469 26.2409C17.2862 26.4765 17.546 26.6903 17.8232 26.8798C20.1083 28.9368 22.4841 29.7599 23.9928 28.9368C25.4548 28.0231 25.9577 25.4632 25.3174 22.2643C25.2721 22.0816 25.2721 21.7628 25.1332 21.488C25.3174 21.4427 25.4548 21.4427 25.6376 21.3038C28.8364 20.3462 31.1668 18.6108 31.1668 16.8725C31.1215 15.4558 28.9285 13.8111 25.9577 12.7599ZM18.4636 8.09909C20.5177 6.31551 22.4387 5.67659 23.3511 6.13276C24.2662 6.63567 24.6317 8.82867 24.0382 11.7088C23.9928 11.8915 23.9928 12.0275 23.9007 12.3023C22.6668 12.0275 21.4782 11.7994 20.199 11.7073C19.5133 10.7029 18.737 9.65317 17.9139 8.82867C18.0512 8.55398 18.2369 8.30634 18.4622 8.09767M12.1084 19.9325C12.3832 20.4354 12.7034 20.893 13.0236 21.3492C12.1614 21.3012 11.3049 21.1789 10.4637 20.9837C10.6747 20.1439 10.9813 19.3311 11.3774 18.5612C11.5616 18.972 11.8803 19.5217 12.1084 19.9325ZM10.4651 13.3521C11.2957 13.1653 12.1337 13.0127 12.9768 12.8945C12.6567 13.3521 12.3818 13.8097 12.1552 14.3112C11.9257 14.8141 11.6522 15.2263 11.3774 15.7746C10.9666 14.9062 10.7399 14.1284 10.4651 13.3521ZM11.9242 17.1445C12.2444 16.3682 12.702 15.6825 13.1582 14.9062C13.6157 14.1284 14.0719 13.4428 14.4842 12.7118C15.3058 12.6664 16.1289 12.6664 16.9973 12.6664C17.819 12.6664 18.7342 12.7118 19.5105 12.7118C20.0134 13.3974 20.4242 14.1284 20.8365 14.8141C21.2927 15.4998 21.6582 16.2775 22.069 17.0524C21.7502 17.8316 21.2927 18.5158 20.8365 19.2936C20.3789 20.0699 19.9213 20.7556 19.5105 21.4866C18.6888 21.5319 17.8657 21.5319 16.952 21.5319C16.0382 21.5319 15.2152 21.4866 14.4388 21.4866C13.9359 20.8009 13.5237 20.0699 13.1128 19.2936C12.702 18.5158 12.3365 17.9223 11.9242 17.1445ZM21.8877 19.9325C22.1611 19.4296 22.3892 18.9734 22.664 18.4705C22.9842 19.2468 23.3043 20.0699 23.5777 20.893C22.7561 21.0758 21.8409 21.2118 20.9286 21.3492C21.2927 20.893 21.6128 20.3901 21.8877 19.9325ZM22.7093 15.7278C22.4359 15.2263 22.2064 14.7688 21.933 14.2658C21.6596 13.7629 21.338 13.3521 21.1113 12.9413C21.9545 13.0589 22.7924 13.2111 23.6231 13.3974C23.3497 14.1752 23.0295 14.9515 22.7093 15.7278ZM17.0002 9.56251C17.5952 10.2014 18.0967 10.8418 18.5996 11.5274C17.5036 11.4819 16.4061 11.4819 15.3101 11.5274C15.9037 10.7964 16.4972 10.1561 17.0002 9.56251ZM10.6025 6.17667C11.5162 5.67517 13.6186 6.36084 15.7209 8.37109C15.8583 8.50851 15.9943 8.64451 16.1771 8.73659C15.3554 9.65034 14.5777 10.6562 13.8013 11.6153C12.557 11.7424 11.3211 11.941 10.0996 12.2103C10.0542 11.9354 9.96216 11.6153 9.91683 11.3872C9.41391 8.69126 9.73408 6.67959 10.6025 6.17667ZM9.32183 20.7117C9.13766 20.6649 8.86425 20.5743 8.63616 20.5275C7.36191 20.1822 6.1668 19.5928 5.11716 18.7921C4.47683 18.3345 4.15666 17.7863 4.02066 17.1459C4.02066 16.1401 5.80283 14.8623 8.316 13.9471C8.63616 13.8111 8.95633 13.7643 9.27508 13.6283C9.64058 14.8608 10.0982 16.0041 10.6011 17.1459C10.1435 18.2892 9.64058 19.431 9.32183 20.7117ZM15.6742 26.0582C14.7504 26.8871 13.6813 27.5379 12.5207 27.9778C12.2254 28.1312 11.8988 28.2151 11.5661 28.223C11.2334 28.2308 10.9033 28.1624 10.6011 28.0231C9.68733 27.5202 9.36716 25.6006 9.82333 22.9514C9.87008 22.6298 9.96075 22.3111 10.0075 22.0363C11.24 22.3111 12.5207 22.4938 13.7078 22.5392C14.3935 23.545 15.2619 24.5948 16.085 25.5099C16.0397 25.7833 15.8555 25.9208 15.6742 26.0582ZM17.0441 24.7789C16.4491 24.1386 15.9476 23.4983 15.3993 22.8126C15.9022 22.8126 16.4052 22.8593 16.9987 22.8593C17.5923 22.8593 18.1406 22.8593 18.6435 22.8126C18.142 23.4076 17.6377 24.0479 17.0441 24.7789ZM24.2648 26.3755C24.2195 27.0158 23.8993 27.7015 23.3511 28.1123C22.4373 28.6153 20.6084 27.9763 18.5982 26.1942C18.4154 26.01 18.142 25.8273 17.9125 25.5538C18.7502 24.6245 19.5142 23.6312 20.1976 22.5831C21.4768 22.5378 22.7107 22.2629 23.8993 21.9881C23.9447 22.1723 23.9447 22.4457 24.0367 22.6284C24.3569 23.9091 24.3569 25.1883 24.2648 26.3755ZM25.2707 20.4822C25.1332 20.5275 24.9505 20.5275 24.7677 20.6182C24.4022 19.3843 23.854 18.2424 23.3511 17.0992C23.854 16.0027 24.3102 14.8141 24.6757 13.6269C24.9958 13.6723 25.2707 13.8097 25.4987 13.9003C28.0572 14.8141 29.8394 16.0933 29.8394 17.0992C29.8862 18.1503 28.0119 19.567 25.2707 20.4808M17.0002 19.6123C18.4168 19.6123 19.5133 18.4705 19.5133 17.0992C19.507 16.4347 19.2402 15.7993 18.7702 15.3295C18.3002 14.8598 17.6646 14.5933 17.0002 14.5874C15.6756 14.5874 14.487 15.7293 14.487 17.1006C14.487 18.4719 15.5835 19.6138 17.0002 19.6138" fill="#1E1E1E"/>
</svg>
