<svg width="34" height="34" viewBox="0 0 34 34" fill="none" xmlns="http://www.w3.org/2000/svg">
<path d="M4.25 4.25V29.75H29.75V4.25H4.25ZM12.75 17H19.125V19.125H17V27.625H14.875V19.125H12.75V17ZM23.375 17H27.625V19.125H23.375V21.25H25.5C26.0631 21.2517 26.6026 21.4761 27.0007 21.8743C27.3989 22.2724 27.6233 22.8119 27.625 23.375V25.5C27.6233 26.0631 27.3989 26.6026 27.0007 27.0007C26.6026 27.3989 26.0631 27.6233 25.5 27.625H21.25V25.5H25.5V23.375H23.375C22.8119 23.3733 22.2724 23.1489 21.8743 22.7507C21.4761 22.3526 21.2517 21.8131 21.25 21.25V19.125C21.2517 18.5619 21.4761 18.0224 21.8743 17.6243C22.2724 17.2261 22.8119 17.0017 23.375 17Z" fill="black"/>
</svg>
