<svg width="311" height="164" viewBox="0 0 311 164" fill="none" xmlns="http://www.w3.org/2000/svg">
<g id="Frame 18">
<g id="Frame 9">
<g id="Frame 1">
<path id="ABOUT." d="M10.3451 84L25.7172 23.6687H37.4529L52.8249 84H43.8166L40.1802 68.7106H23.0725L19.4361 84H10.3451ZM24.7254 61.3551H38.4446L34.3123 43.9168C33.5961 40.8314 32.99 38.1592 32.4941 35.9002C32.0533 33.5861 31.7503 32.0159 31.585 31.1894C31.4197 32.0159 31.1167 33.5861 30.6759 35.9002C30.2351 38.1592 29.6291 40.8039 28.8577 43.8342L24.7254 61.3551ZM63.3713 84V23.6687H81.1401C86.8702 23.6687 91.3606 25.0461 94.6114 27.8009C97.8621 30.5558 99.4875 34.3575 99.4875 39.206C99.4875 41.9609 98.8814 44.3576 97.6693 46.3962C96.5122 48.3797 94.8869 49.9224 92.7932 51.0244C90.6995 52.1263 88.2477 52.6773 85.4377 52.6773V51.8508C88.468 51.7957 91.1403 52.3743 93.4543 53.5864C95.7684 54.7434 97.5866 56.479 98.9089 58.7931C100.231 61.1071 100.892 63.862 100.892 67.0576C100.892 70.4737 100.121 73.4765 98.5784 76.066C97.0907 78.6005 94.942 80.5564 92.132 81.9339C89.3771 83.3113 86.0989 84 82.2972 84H63.3713ZM72.0491 76.314H81.5534C84.749 76.314 87.2835 75.4599 89.1568 73.7519C91.0301 72.0439 91.9667 69.6748 91.9667 66.6444C91.9667 63.559 91.0301 61.0796 89.1568 59.2063C87.2835 57.333 84.749 56.3963 81.5534 56.3963H72.0491V76.314ZM72.0491 48.9582H81.0575C84.0327 48.9582 86.3744 48.1593 88.0824 46.5615C89.7904 44.9637 90.6444 42.8149 90.6444 40.1151C90.6444 37.4154 89.7904 35.2941 88.0824 33.7514C86.3744 32.1536 84.0603 31.3547 81.1401 31.3547H72.0491V48.9582ZM130.695 84.8265C126.949 84.8265 123.698 84.1377 120.943 82.7603C118.243 81.3278 116.15 79.2892 114.662 76.6445C113.229 73.9448 112.513 70.8042 112.513 67.2229V40.4457C112.513 36.8093 113.229 33.6688 114.662 31.0241C116.15 28.3795 118.243 26.3684 120.943 24.991C123.698 23.5585 126.949 22.8422 130.695 22.8422C134.442 22.8422 137.665 23.5585 140.365 24.991C143.12 26.3684 145.213 28.3795 146.646 31.0241C148.133 33.6688 148.877 36.7818 148.877 40.3631V67.2229C148.877 70.8042 148.133 73.9448 146.646 76.6445C145.213 79.2892 143.12 81.3278 140.365 82.7603C137.665 84.1377 134.442 84.8265 130.695 84.8265ZM130.695 76.8925C133.726 76.8925 136.012 76.066 137.555 74.4131C139.153 72.7051 139.952 70.3084 139.952 67.2229V40.4457C139.952 37.3052 139.153 34.9085 137.555 33.2556C136.012 31.6026 133.726 30.7762 130.695 30.7762C127.72 30.7762 125.433 31.6026 123.836 33.2556C122.238 34.9085 121.439 37.3052 121.439 40.4457V67.2229C121.439 70.3084 122.238 72.7051 123.836 74.4131C125.433 76.066 127.72 76.8925 130.695 76.8925ZM180.25 84.8265C174.465 84.8265 170.002 83.2562 166.862 80.1157C163.721 76.92 162.151 72.5949 162.151 67.1403V23.6687H171.077V67.1403C171.077 70.1706 171.821 72.5673 173.308 74.3305C174.851 76.0936 177.165 76.9751 180.25 76.9751C183.281 76.9751 185.567 76.0936 187.11 74.3305C188.653 72.5673 189.424 70.1706 189.424 67.1403V23.6687H198.35V67.1403C198.35 72.5949 196.78 76.92 193.639 80.1157C190.498 83.2562 186.036 84.8265 180.25 84.8265ZM225.343 84V31.8506H209.227V23.586H250.384V31.8506H234.268V84H225.343ZM279.361 84.8265C277.157 84.8265 275.394 84.1928 274.071 82.9256C272.749 81.6033 272.088 79.8402 272.088 77.6363C272.088 75.3773 272.749 73.5866 274.071 72.2643C275.394 70.8869 277.157 70.1982 279.361 70.1982C281.62 70.1982 283.383 70.8869 284.65 72.2643C285.972 73.5866 286.633 75.3773 286.633 77.6363C286.633 79.8402 285.972 81.6033 284.65 82.9256C283.383 84.1928 281.62 84.8265 279.361 84.8265Z" fill="black" fill-opacity="0.6"/>
</g>
<rect id="Rectangle 3" y="43.1181" width="307" height="66" fill="#2DC7FF"/>
</g>
<g id="Frame 10">
<g id="Frame 1_2">
<path id="ABOUT._2" d="M10.3451 111L25.7172 50.6687H37.4529L52.8249 111H43.8166L40.1802 95.7106H23.0725L19.4361 111H10.3451ZM24.7254 88.3551H38.4446L34.3123 70.9168C33.5961 67.8314 32.99 65.1592 32.4941 62.9002C32.0533 60.5861 31.7503 59.0159 31.585 58.1894C31.4197 59.0159 31.1167 60.5861 30.6759 62.9002C30.2351 65.1592 29.6291 67.8039 28.8577 70.8342L24.7254 88.3551ZM63.3713 111V50.6687H81.1401C86.8702 50.6687 91.3606 52.0461 94.6114 54.8009C97.8621 57.5558 99.4875 61.3575 99.4875 66.206C99.4875 68.9609 98.8814 71.3576 97.6693 73.3962C96.5122 75.3797 94.8869 76.9224 92.7932 78.0244C90.6995 79.1263 88.2477 79.6773 85.4377 79.6773V78.8508C88.468 78.7957 91.1403 79.3743 93.4543 80.5864C95.7684 81.7434 97.5866 83.479 98.9089 85.7931C100.231 88.1071 100.892 90.862 100.892 94.0576C100.892 97.4737 100.121 100.476 98.5784 103.066C97.0907 105.6 94.942 107.556 92.132 108.934C89.3771 110.311 86.0989 111 82.2972 111H63.3713ZM72.0491 103.314H81.5534C84.749 103.314 87.2835 102.46 89.1568 100.752C91.0301 99.0439 91.9667 96.6748 91.9667 93.6444C91.9667 90.559 91.0301 88.0796 89.1568 86.2063C87.2835 84.333 84.749 83.3963 81.5534 83.3963H72.0491V103.314ZM72.0491 75.9582H81.0575C84.0327 75.9582 86.3744 75.1593 88.0824 73.5615C89.7904 71.9637 90.6444 69.8149 90.6444 67.1151C90.6444 64.4154 89.7904 62.2941 88.0824 60.7514C86.3744 59.1536 84.0603 58.3547 81.1401 58.3547H72.0491V75.9582ZM130.695 111.826C126.949 111.826 123.698 111.138 120.943 109.76C118.243 108.328 116.15 106.289 114.662 103.645C113.229 100.945 112.513 97.8042 112.513 94.2229V67.4457C112.513 63.8093 113.229 60.6688 114.662 58.0241C116.15 55.3795 118.243 53.3684 120.943 51.991C123.698 50.5585 126.949 49.8422 130.695 49.8422C134.442 49.8422 137.665 50.5585 140.365 51.991C143.12 53.3684 145.213 55.3795 146.646 58.0241C148.133 60.6688 148.877 63.7818 148.877 67.3631V94.2229C148.877 97.8042 148.133 100.945 146.646 103.645C145.213 106.289 143.12 108.328 140.365 109.76C137.665 111.138 134.442 111.826 130.695 111.826ZM130.695 103.892C133.726 103.892 136.012 103.066 137.555 101.413C139.153 99.7051 139.952 97.3084 139.952 94.2229V67.4457C139.952 64.3052 139.153 61.9085 137.555 60.2556C136.012 58.6026 133.726 57.7762 130.695 57.7762C127.72 57.7762 125.433 58.6026 123.836 60.2556C122.238 61.9085 121.439 64.3052 121.439 67.4457V94.2229C121.439 97.3084 122.238 99.7051 123.836 101.413C125.433 103.066 127.72 103.892 130.695 103.892ZM180.25 111.826C174.465 111.826 170.002 110.256 166.862 107.116C163.721 103.92 162.151 99.5949 162.151 94.1403V50.6687H171.077V94.1403C171.077 97.1706 171.821 99.5673 173.308 101.33C174.851 103.094 177.165 103.975 180.25 103.975C183.281 103.975 185.567 103.094 187.11 101.33C188.653 99.5673 189.424 97.1706 189.424 94.1403V50.6687H198.35V94.1403C198.35 99.5949 196.78 103.92 193.639 107.116C190.498 110.256 186.036 111.826 180.25 111.826ZM225.343 111V58.8506H209.227V50.586H250.384V58.8506H234.268V111H225.343ZM279.361 111.826C277.157 111.826 275.394 111.193 274.071 109.926C272.749 108.603 272.088 106.84 272.088 104.636C272.088 102.377 272.749 100.587 274.071 99.2643C275.394 97.8869 277.157 97.1982 279.361 97.1982C281.62 97.1982 283.383 97.8869 284.65 99.2643C285.972 100.587 286.633 102.377 286.633 104.636C286.633 106.84 285.972 108.603 284.65 109.926C283.383 111.193 281.62 111.826 279.361 111.826Z" fill="black" fill-opacity="0.8"/>
</g>
<rect id="Rectangle 3_2" y="70.1181" width="307" height="66" fill="#2DC7FF"/>
</g>
<g id="Frame 7">
<path id="ABOUT._3" d="M10.3451 138.118L25.7172 77.7868H37.4529L52.8249 138.118H43.8166L40.1802 122.829H23.0725L19.4361 138.118H10.3451ZM24.7254 115.473H38.4446L34.3123 98.035C33.5961 94.9495 32.99 92.2773 32.4941 90.0183C32.0533 87.7042 31.7503 86.134 31.585 85.3075C31.4197 86.134 31.1167 87.7042 30.6759 90.0183C30.2351 92.2773 29.6291 94.922 28.8577 97.9523L24.7254 115.473ZM63.3713 138.118V77.7868H81.1401C86.8702 77.7868 91.3606 79.1642 94.6114 81.919C97.8621 84.6739 99.4875 88.4756 99.4875 93.3241C99.4875 96.079 98.8814 98.4757 97.6693 100.514C96.5122 102.498 94.8869 104.041 92.7932 105.142C90.6995 106.244 88.2477 106.795 85.4377 106.795V105.969C88.468 105.914 91.1403 106.492 93.4543 107.704C95.7684 108.862 97.5866 110.597 98.9089 112.911C100.231 115.225 100.892 117.98 100.892 121.176C100.892 124.592 100.121 127.595 98.5784 130.184C97.0907 132.719 94.942 134.675 92.132 136.052C89.3771 137.429 86.0989 138.118 82.2972 138.118H63.3713ZM72.0491 130.432H81.5534C84.749 130.432 87.2835 129.578 89.1568 127.87C91.0301 126.162 91.9667 123.793 91.9667 120.763C91.9667 117.677 91.0301 115.198 89.1568 113.324C87.2835 111.451 84.749 110.514 81.5534 110.514H72.0491V130.432ZM72.0491 103.076H81.0575C84.0327 103.076 86.3744 102.277 88.0824 100.68C89.7904 99.0818 90.6444 96.933 90.6444 94.2333C90.6444 91.5335 89.7904 89.4123 88.0824 87.8695C86.3744 86.2717 84.0603 85.4728 81.1401 85.4728H72.0491V103.076ZM130.695 138.945C126.949 138.945 123.698 138.256 120.943 136.878C118.243 135.446 116.15 133.407 114.662 130.763C113.229 128.063 112.513 124.922 112.513 121.341V94.5638C112.513 90.9274 113.229 87.7869 114.662 85.1422C116.15 82.4976 118.243 80.4865 120.943 79.1091C123.698 77.6766 126.949 76.9603 130.695 76.9603C134.442 76.9603 137.665 77.6766 140.365 79.1091C143.12 80.4865 145.213 82.4976 146.646 85.1422C148.133 87.7869 148.877 90.8999 148.877 94.4812V121.341C148.877 124.922 148.133 128.063 146.646 130.763C145.213 133.407 143.12 135.446 140.365 136.878C137.665 138.256 134.442 138.945 130.695 138.945ZM130.695 131.011C133.726 131.011 136.012 130.184 137.555 128.531C139.153 126.823 139.952 124.426 139.952 121.341V94.5638C139.952 91.4233 139.153 89.0266 137.555 87.3737C136.012 85.7207 133.726 84.8943 130.695 84.8943C127.72 84.8943 125.433 85.7207 123.836 87.3737C122.238 89.0266 121.439 91.4233 121.439 94.5638V121.341C121.439 124.426 122.238 126.823 123.836 128.531C125.433 130.184 127.72 131.011 130.695 131.011ZM180.25 138.945C174.465 138.945 170.002 137.374 166.862 134.234C163.721 131.038 162.151 126.713 162.151 121.258V77.7868H171.077V121.258C171.077 124.289 171.821 126.685 173.308 128.449C174.851 130.212 177.165 131.093 180.25 131.093C183.281 131.093 185.567 130.212 187.11 128.449C188.653 126.685 189.424 124.289 189.424 121.258V77.7868H198.35V121.258C198.35 126.713 196.78 131.038 193.639 134.234C190.498 137.374 186.036 138.945 180.25 138.945ZM225.343 138.118V85.9687H209.227V77.7041H250.384V85.9687H234.268V138.118H225.343ZM279.361 138.945C277.157 138.945 275.394 138.311 274.071 137.044C272.749 135.721 272.088 133.958 272.088 131.754C272.088 129.495 272.749 127.705 274.071 126.382C275.394 125.005 277.157 124.316 279.361 124.316C281.62 124.316 283.383 125.005 284.65 126.382C285.972 127.705 286.633 129.495 286.633 131.754C286.633 133.958 285.972 135.721 284.65 137.044C283.383 138.311 281.62 138.945 279.361 138.945Z" fill="black"/>
</g>
</g>
</svg>
