<svg width="635" height="253" viewBox="0 0 635 253" fill="none" xmlns="http://www.w3.org/2000/svg">
<g id="Frame 60">
<g id="Frame 9">
<g id="Frame 1">
<path id="SHOBHIT." d="M48.784 132.28C42.4693 132.28 37.0507 131.256 32.528 129.208C28.0053 127.075 24.5067 124.088 22.032 120.248C19.5573 116.323 18.32 111.672 18.32 106.296H32.016C32.016 110.563 33.5093 113.933 36.496 116.408C39.4827 118.797 43.6213 119.992 48.912 119.992C53.8613 119.992 57.744 118.797 60.56 116.408C63.376 114.019 64.784 110.733 64.784 106.552C64.784 103.053 63.8027 100.024 61.84 97.464C59.9627 94.904 57.232 93.1547 53.648 92.216L41.872 88.76C35.0453 86.7973 29.7547 83.4693 26 78.776C22.3307 73.9973 20.496 68.3227 20.496 61.752C20.496 56.632 21.648 52.152 23.952 48.312C26.256 44.472 29.5413 41.4853 33.808 39.352C38.0747 37.2187 43.1093 36.152 48.912 36.152C57.4453 36.152 64.272 38.456 69.392 43.064C74.5973 47.672 77.2427 53.8587 77.328 61.624H63.504C63.504 57.528 62.1813 54.328 59.536 52.024C56.976 49.6347 53.3493 48.44 48.656 48.44C44.1333 48.44 40.592 49.5493 38.032 51.768C35.472 53.9013 34.192 56.9307 34.192 60.856C34.192 64.3547 35.1307 67.384 37.008 69.944C38.9707 72.504 41.744 74.296 45.328 75.32L57.232 78.904C64.0587 80.7813 69.3067 84.1093 72.976 88.888C76.6453 93.6667 78.48 99.384 78.48 106.04C78.48 111.245 77.2427 115.853 74.768 119.864C72.2933 123.789 68.8373 126.861 64.4 129.08C59.9627 131.213 54.7573 132.28 48.784 132.28ZM97.63 131V37.56H111.454V76.216H138.846V37.56H152.67V131H138.846V89.016H111.454V131H97.63ZM201.9 132.28C196.097 132.28 191.063 131.213 186.796 129.08C182.615 126.861 179.372 123.704 177.068 119.608C174.849 115.427 173.74 110.563 173.74 105.016V63.544C173.74 57.912 174.849 53.048 177.068 48.952C179.372 44.856 182.615 41.7413 186.796 39.608C191.063 37.3893 196.097 36.28 201.9 36.28C207.703 36.28 212.695 37.3893 216.876 39.608C221.143 41.7413 224.385 44.856 226.604 48.952C228.908 53.048 230.06 57.8693 230.06 63.416V105.016C230.06 110.563 228.908 115.427 226.604 119.608C224.385 123.704 221.143 126.861 216.876 129.08C212.695 131.213 207.703 132.28 201.9 132.28ZM201.9 119.992C206.593 119.992 210.135 118.712 212.524 116.152C214.999 113.507 216.236 109.795 216.236 105.016V63.544C216.236 58.68 214.999 54.968 212.524 52.408C210.135 49.848 206.593 48.568 201.9 48.568C197.292 48.568 193.751 49.848 191.276 52.408C188.801 54.968 187.564 58.68 187.564 63.544V105.016C187.564 109.795 188.801 113.507 191.276 116.152C193.751 118.712 197.292 119.992 201.9 119.992ZM251.13 131V37.56H278.65C287.525 37.56 294.479 39.6933 299.514 43.96C304.549 48.2267 307.066 54.1147 307.066 61.624C307.066 65.8907 306.127 69.6027 304.25 72.76C302.458 75.832 299.941 78.2213 296.698 79.928C293.455 81.6347 289.658 82.488 285.306 82.488V81.208C289.999 81.1227 294.138 82.0187 297.722 83.896C301.306 85.688 304.122 88.376 306.17 91.96C308.218 95.544 309.242 99.8107 309.242 104.76C309.242 110.051 308.047 114.701 305.658 118.712C303.354 122.637 300.026 125.667 295.674 127.8C291.407 129.933 286.33 131 280.442 131H251.13ZM264.57 119.096H279.29C284.239 119.096 288.165 117.773 291.066 115.128C293.967 112.483 295.418 108.813 295.418 104.12C295.418 99.3413 293.967 95.5013 291.066 92.6C288.165 89.6987 284.239 88.248 279.29 88.248H264.57V119.096ZM264.57 76.728H278.522C283.13 76.728 286.757 75.4907 289.402 73.016C292.047 70.5413 293.37 67.2133 293.37 63.032C293.37 58.8507 292.047 55.5653 289.402 53.176C286.757 50.7013 283.173 49.464 278.65 49.464H264.57V76.728ZM327.88 131V37.56H341.704V76.216H369.096V37.56H382.92V131H369.096V89.016H341.704V131H327.88ZM406.294 131V118.712H425.11V49.848H406.294V37.56H458.006V49.848H439.19V118.712H458.006V131H406.294ZM501.988 131V50.232H477.028V37.432H540.772V50.232H515.812V131H501.988ZM585.65 132.28C582.237 132.28 579.506 131.299 577.458 129.336C575.41 127.288 574.386 124.557 574.386 121.144C574.386 117.645 575.41 114.872 577.458 112.824C579.506 110.691 582.237 109.624 585.65 109.624C589.149 109.624 591.879 110.691 593.842 112.824C595.89 114.872 596.914 117.645 596.914 121.144C596.914 124.557 595.89 127.288 593.842 129.336C591.879 131.299 589.149 132.28 585.65 132.28Z" fill="black" fill-opacity="0.6"/>
</g>
<rect id="Rectangle 3" y="66" width="635" height="103" fill="#C46AF0"/>
</g>
<g id="Frame 10">
<g id="Frame 1_2">
<path id="SHOBHIT._2" d="M48.784 174.28C42.4693 174.28 37.0507 173.256 32.528 171.208C28.0053 169.075 24.5067 166.088 22.032 162.248C19.5573 158.323 18.32 153.672 18.32 148.296H32.016C32.016 152.563 33.5093 155.933 36.496 158.408C39.4827 160.797 43.6213 161.992 48.912 161.992C53.8613 161.992 57.744 160.797 60.56 158.408C63.376 156.019 64.784 152.733 64.784 148.552C64.784 145.053 63.8027 142.024 61.84 139.464C59.9627 136.904 57.232 135.155 53.648 134.216L41.872 130.76C35.0453 128.797 29.7547 125.469 26 120.776C22.3307 115.997 20.496 110.323 20.496 103.752C20.496 98.632 21.648 94.152 23.952 90.312C26.256 86.472 29.5413 83.4853 33.808 81.352C38.0747 79.2187 43.1093 78.152 48.912 78.152C57.4453 78.152 64.272 80.456 69.392 85.064C74.5973 89.672 77.2427 95.8587 77.328 103.624H63.504C63.504 99.528 62.1813 96.328 59.536 94.024C56.976 91.6347 53.3493 90.44 48.656 90.44C44.1333 90.44 40.592 91.5493 38.032 93.768C35.472 95.9013 34.192 98.9307 34.192 102.856C34.192 106.355 35.1307 109.384 37.008 111.944C38.9707 114.504 41.744 116.296 45.328 117.32L57.232 120.904C64.0587 122.781 69.3067 126.109 72.976 130.888C76.6453 135.667 78.48 141.384 78.48 148.04C78.48 153.245 77.2427 157.853 74.768 161.864C72.2933 165.789 68.8373 168.861 64.4 171.08C59.9627 173.213 54.7573 174.28 48.784 174.28ZM97.63 173V79.56H111.454V118.216H138.846V79.56H152.67V173H138.846V131.016H111.454V173H97.63ZM201.9 174.28C196.097 174.28 191.063 173.213 186.796 171.08C182.615 168.861 179.372 165.704 177.068 161.608C174.849 157.427 173.74 152.563 173.74 147.016V105.544C173.74 99.912 174.849 95.048 177.068 90.952C179.372 86.856 182.615 83.7413 186.796 81.608C191.063 79.3893 196.097 78.28 201.9 78.28C207.703 78.28 212.695 79.3893 216.876 81.608C221.143 83.7413 224.385 86.856 226.604 90.952C228.908 95.048 230.06 99.8693 230.06 105.416V147.016C230.06 152.563 228.908 157.427 226.604 161.608C224.385 165.704 221.143 168.861 216.876 171.08C212.695 173.213 207.703 174.28 201.9 174.28ZM201.9 161.992C206.593 161.992 210.135 160.712 212.524 158.152C214.999 155.507 216.236 151.795 216.236 147.016V105.544C216.236 100.68 214.999 96.968 212.524 94.408C210.135 91.848 206.593 90.568 201.9 90.568C197.292 90.568 193.751 91.848 191.276 94.408C188.801 96.968 187.564 100.68 187.564 105.544V147.016C187.564 151.795 188.801 155.507 191.276 158.152C193.751 160.712 197.292 161.992 201.9 161.992ZM251.13 173V79.56H278.65C287.525 79.56 294.479 81.6933 299.514 85.96C304.549 90.2267 307.066 96.1147 307.066 103.624C307.066 107.891 306.127 111.603 304.25 114.76C302.458 117.832 299.941 120.221 296.698 121.928C293.455 123.635 289.658 124.488 285.306 124.488V123.208C289.999 123.123 294.138 124.019 297.722 125.896C301.306 127.688 304.122 130.376 306.17 133.96C308.218 137.544 309.242 141.811 309.242 146.76C309.242 152.051 308.047 156.701 305.658 160.712C303.354 164.637 300.026 167.667 295.674 169.8C291.407 171.933 286.33 173 280.442 173H251.13ZM264.57 161.096H279.29C284.239 161.096 288.165 159.773 291.066 157.128C293.967 154.483 295.418 150.813 295.418 146.12C295.418 141.341 293.967 137.501 291.066 134.6C288.165 131.699 284.239 130.248 279.29 130.248H264.57V161.096ZM264.57 118.728H278.522C283.13 118.728 286.757 117.491 289.402 115.016C292.047 112.541 293.37 109.213 293.37 105.032C293.37 100.851 292.047 97.5653 289.402 95.176C286.757 92.7013 283.173 91.464 278.65 91.464H264.57V118.728ZM327.88 173V79.56H341.704V118.216H369.096V79.56H382.92V173H369.096V131.016H341.704V173H327.88ZM406.294 173V160.712H425.11V91.848H406.294V79.56H458.006V91.848H439.19V160.712H458.006V173H406.294ZM501.988 173V92.232H477.028V79.432H540.772V92.232H515.812V173H501.988ZM585.65 174.28C582.237 174.28 579.506 173.299 577.458 171.336C575.41 169.288 574.386 166.557 574.386 163.144C574.386 159.645 575.41 156.872 577.458 154.824C579.506 152.691 582.237 151.624 585.65 151.624C589.149 151.624 591.879 152.691 593.842 154.824C595.89 156.872 596.914 159.645 596.914 163.144C596.914 166.557 595.89 169.288 593.842 171.336C591.879 173.299 589.149 174.28 585.65 174.28Z" fill="black" fill-opacity="0.8"/>
</g>
<rect id="Rectangle 3_2" y="108" width="635" height="103" fill="#C46AF0"/>
</g>
<g id="Frame 7">
<path id="SHOBHIT._3" d="M48.784 216.28C42.4693 216.28 37.0507 215.256 32.528 213.208C28.0053 211.075 24.5067 208.088 22.032 204.248C19.5573 200.323 18.32 195.672 18.32 190.296H32.016C32.016 194.563 33.5093 197.933 36.496 200.408C39.4827 202.797 43.6213 203.992 48.912 203.992C53.8613 203.992 57.744 202.797 60.56 200.408C63.376 198.019 64.784 194.733 64.784 190.552C64.784 187.053 63.8027 184.024 61.84 181.464C59.9627 178.904 57.232 177.155 53.648 176.216L41.872 172.76C35.0453 170.797 29.7547 167.469 26 162.776C22.3307 157.997 20.496 152.323 20.496 145.752C20.496 140.632 21.648 136.152 23.952 132.312C26.256 128.472 29.5413 125.485 33.808 123.352C38.0747 121.219 43.1093 120.152 48.912 120.152C57.4453 120.152 64.272 122.456 69.392 127.064C74.5973 131.672 77.2427 137.859 77.328 145.624H63.504C63.504 141.528 62.1813 138.328 59.536 136.024C56.976 133.635 53.3493 132.44 48.656 132.44C44.1333 132.44 40.592 133.549 38.032 135.768C35.472 137.901 34.192 140.931 34.192 144.856C34.192 148.355 35.1307 151.384 37.008 153.944C38.9707 156.504 41.744 158.296 45.328 159.32L57.232 162.904C64.0587 164.781 69.3067 168.109 72.976 172.888C76.6453 177.667 78.48 183.384 78.48 190.04C78.48 195.245 77.2427 199.853 74.768 203.864C72.2933 207.789 68.8373 210.861 64.4 213.08C59.9627 215.213 54.7573 216.28 48.784 216.28ZM97.63 215V121.56H111.454V160.216H138.846V121.56H152.67V215H138.846V173.016H111.454V215H97.63ZM201.9 216.28C196.097 216.28 191.063 215.213 186.796 213.08C182.615 210.861 179.372 207.704 177.068 203.608C174.849 199.427 173.74 194.563 173.74 189.016V147.544C173.74 141.912 174.849 137.048 177.068 132.952C179.372 128.856 182.615 125.741 186.796 123.608C191.063 121.389 196.097 120.28 201.9 120.28C207.703 120.28 212.695 121.389 216.876 123.608C221.143 125.741 224.385 128.856 226.604 132.952C228.908 137.048 230.06 141.869 230.06 147.416V189.016C230.06 194.563 228.908 199.427 226.604 203.608C224.385 207.704 221.143 210.861 216.876 213.08C212.695 215.213 207.703 216.28 201.9 216.28ZM201.9 203.992C206.593 203.992 210.135 202.712 212.524 200.152C214.999 197.507 216.236 193.795 216.236 189.016V147.544C216.236 142.68 214.999 138.968 212.524 136.408C210.135 133.848 206.593 132.568 201.9 132.568C197.292 132.568 193.751 133.848 191.276 136.408C188.801 138.968 187.564 142.68 187.564 147.544V189.016C187.564 193.795 188.801 197.507 191.276 200.152C193.751 202.712 197.292 203.992 201.9 203.992ZM251.13 215V121.56H278.65C287.525 121.56 294.479 123.693 299.514 127.96C304.549 132.227 307.066 138.115 307.066 145.624C307.066 149.891 306.127 153.603 304.25 156.76C302.458 159.832 299.941 162.221 296.698 163.928C293.455 165.635 289.658 166.488 285.306 166.488V165.208C289.999 165.123 294.138 166.019 297.722 167.896C301.306 169.688 304.122 172.376 306.17 175.96C308.218 179.544 309.242 183.811 309.242 188.76C309.242 194.051 308.047 198.701 305.658 202.712C303.354 206.637 300.026 209.667 295.674 211.8C291.407 213.933 286.33 215 280.442 215H251.13ZM264.57 203.096H279.29C284.239 203.096 288.165 201.773 291.066 199.128C293.967 196.483 295.418 192.813 295.418 188.12C295.418 183.341 293.967 179.501 291.066 176.6C288.165 173.699 284.239 172.248 279.29 172.248H264.57V203.096ZM264.57 160.728H278.522C283.13 160.728 286.757 159.491 289.402 157.016C292.047 154.541 293.37 151.213 293.37 147.032C293.37 142.851 292.047 139.565 289.402 137.176C286.757 134.701 283.173 133.464 278.65 133.464H264.57V160.728ZM327.88 215V121.56H341.704V160.216H369.096V121.56H382.92V215H369.096V173.016H341.704V215H327.88ZM406.294 215V202.712H425.11V133.848H406.294V121.56H458.006V133.848H439.19V202.712H458.006V215H406.294ZM501.988 215V134.232H477.028V121.432H540.772V134.232H515.812V215H501.988ZM585.65 216.28C582.237 216.28 579.506 215.299 577.458 213.336C575.41 211.288 574.386 208.557 574.386 205.144C574.386 201.645 575.41 198.872 577.458 196.824C579.506 194.691 582.237 193.624 585.65 193.624C589.149 193.624 591.879 194.691 593.842 196.824C595.89 198.872 596.914 201.645 596.914 205.144C596.914 208.557 595.89 211.288 593.842 213.336C591.879 215.299 589.149 216.28 585.65 216.28Z" fill="black"/>
</g>
</g>
</svg>
