<svg width="459" height="164" viewBox="0 0 459 164" fill="none" xmlns="http://www.w3.org/2000/svg">
<g id="Frame 18">
<g id="Frame 9">
<g id="Frame 1">
<path id="PROJECTS." d="M13.401 84V23.6687H33.1533C37.0652 23.6687 40.4537 24.4125 43.3187 25.9001C46.2389 27.3877 48.4703 29.509 50.013 32.2638C51.6108 34.9636 52.4098 38.1592 52.4098 41.8507C52.4098 45.4871 51.6108 48.6827 50.013 51.4376C48.4152 54.1925 46.1838 56.3137 43.3187 57.8013C40.4537 59.2889 37.0652 60.0328 33.1533 60.0328H22.3267V84H13.401ZM22.3267 52.0161H33.1533C36.2387 52.0161 38.6906 51.107 40.5088 49.2888C42.3821 47.4155 43.3187 44.9361 43.3187 41.8507C43.3187 38.7102 42.3821 36.2308 40.5088 34.4126C38.6906 32.5944 36.2387 31.6853 33.1533 31.6853H22.3267V52.0161ZM62.9561 84V23.6687H81.882C85.6837 23.6687 88.9895 24.4125 91.7995 25.9001C94.6094 27.3326 96.7857 29.3712 98.3285 32.0159C99.9263 34.6605 100.725 37.7735 100.725 41.3548C100.725 45.3769 99.6783 48.8756 97.5846 51.8508C95.5461 54.771 92.7636 56.8371 89.2374 58.0493L101.552 84H91.3862L80.3943 59.2063H71.8818V84H62.9561ZM71.8818 51.355H81.882C84.8572 51.355 87.2264 50.4734 88.9895 48.7103C90.7526 46.8921 91.6342 44.4954 91.6342 41.5201C91.6342 38.4347 90.7526 36.0104 88.9895 34.2473C87.2264 32.4842 84.8572 31.6026 81.882 31.6026H71.8818V51.355ZM130.363 84.8265C126.616 84.8265 123.365 84.1377 120.611 82.7603C117.911 81.3278 115.817 79.2892 114.329 76.6445C112.897 73.9448 112.181 70.8042 112.181 67.2229V40.4457C112.181 36.8093 112.897 33.6688 114.329 31.0241C115.817 28.3795 117.911 26.3684 120.611 24.991C123.365 23.5585 126.616 22.8422 130.363 22.8422C134.109 22.8422 137.332 23.5585 140.032 24.991C142.787 26.3684 144.881 28.3795 146.313 31.0241C147.801 33.6688 148.545 36.7818 148.545 40.3631V67.2229C148.545 70.8042 147.801 73.9448 146.313 76.6445C144.881 79.2892 142.787 81.3278 140.032 82.7603C137.332 84.1377 134.109 84.8265 130.363 84.8265ZM130.363 76.8925C133.393 76.8925 135.68 76.066 137.222 74.4131C138.82 72.7051 139.619 70.3084 139.619 67.2229V40.4457C139.619 37.3052 138.82 34.9085 137.222 33.2556C135.68 31.6026 133.393 30.7762 130.363 30.7762C127.387 30.7762 125.101 31.6026 123.503 33.2556C121.905 34.9085 121.106 37.3052 121.106 40.4457V67.2229C121.106 70.3084 121.905 72.7051 123.503 74.4131C125.101 76.066 127.387 76.8925 130.363 76.8925ZM177.438 84.8265C171.488 84.8265 166.805 83.1735 163.389 79.8677C159.973 76.5619 158.265 72.0715 158.265 66.3965H167.108C167.108 69.7574 168.017 72.3745 169.835 74.2478C171.653 76.066 174.188 76.9751 177.438 76.9751C180.689 76.9751 183.224 76.066 185.042 74.2478C186.86 72.3745 187.769 69.7849 187.769 66.4791V31.8506H173.554V23.6687H196.612V66.4791C196.612 72.1541 194.877 76.6445 191.406 79.9504C187.99 83.2011 183.334 84.8265 177.438 84.8265ZM212.448 84V23.6687H247.903V31.6026H221.208V48.7103H245.01V56.5616H221.208V76.066H247.903V84H212.448ZM279.359 84.8265C275.612 84.8265 272.334 84.1377 269.524 82.7603C266.769 81.3278 264.62 79.2892 263.077 76.6445C261.59 73.9448 260.846 70.8042 260.846 67.2229V40.4457C260.846 36.8093 261.59 33.6688 263.077 31.0241C264.62 28.3795 266.769 26.3684 269.524 24.991C272.334 23.5585 275.612 22.8422 279.359 22.8422C283.105 22.8422 286.356 23.5585 289.111 24.991C291.866 26.4235 293.987 28.4621 295.475 31.1068C297.017 33.6963 297.789 36.8093 297.789 40.4457H288.863C288.863 37.3052 288.036 34.9085 286.384 33.2556C284.731 31.6026 282.389 30.7762 279.359 30.7762C276.328 30.7762 273.959 31.6026 272.251 33.2556C270.598 34.9085 269.772 37.2776 269.772 40.3631V67.2229C269.772 70.3084 270.598 72.7051 272.251 74.4131C273.959 76.066 276.328 76.8925 279.359 76.8925C282.389 76.8925 284.731 76.066 286.384 74.4131C288.036 72.7051 288.863 70.3084 288.863 67.2229H297.789C297.789 70.8042 297.017 73.9172 295.475 76.5619C293.987 79.2066 291.866 81.2451 289.111 82.6777C286.356 84.1102 283.105 84.8265 279.359 84.8265ZM324.12 84V31.8506H308.004V23.586H349.162V31.8506H333.046V84H324.12ZM378.386 84.8265C374.309 84.8265 370.81 84.1653 367.89 82.843C364.97 81.4655 362.711 79.5371 361.113 77.0578C359.515 74.5233 358.717 71.5205 358.717 68.0494H367.56C367.56 70.8042 368.524 72.9806 370.452 74.5784C372.381 76.1211 375.053 76.8925 378.469 76.8925C381.665 76.8925 384.171 76.1211 385.99 74.5784C387.808 73.0357 388.717 70.9144 388.717 68.2147C388.717 65.9557 388.083 63.9997 386.816 62.3468C385.604 60.6939 383.841 59.5644 381.527 58.9584L373.923 56.7269C369.516 55.4597 366.1 53.3109 363.675 50.2806C361.306 47.1951 360.122 43.5312 360.122 39.2887C360.122 35.9829 360.865 33.0903 362.353 30.6109C363.841 28.1315 365.962 26.2031 368.717 24.8257C371.472 23.4483 374.722 22.7596 378.469 22.7596C383.979 22.7596 388.386 24.2472 391.692 27.2224C395.053 30.1977 396.761 34.1922 396.816 39.206H387.89C387.89 36.5614 387.036 34.4952 385.328 33.0076C383.676 31.4649 381.334 30.6935 378.304 30.6935C375.383 30.6935 373.097 31.4098 371.444 32.8423C369.791 34.2198 368.965 36.1757 368.965 38.7102C368.965 40.9692 369.571 42.9251 370.783 44.578C372.05 46.2309 373.841 47.388 376.155 48.0491L383.841 50.3632C388.249 51.5753 391.637 53.7241 394.006 56.8096C396.375 59.895 397.56 63.5865 397.56 67.8841C397.56 71.245 396.761 74.2203 395.163 76.8098C393.565 79.3443 391.334 81.3278 388.469 82.7603C385.604 84.1377 382.243 84.8265 378.386 84.8265ZM427.693 84.8265C425.49 84.8265 423.726 84.1928 422.404 82.9256C421.082 81.6033 420.421 79.8402 420.421 77.6363C420.421 75.3773 421.082 73.5866 422.404 72.2643C423.726 70.8869 425.49 70.1982 427.693 70.1982C429.952 70.1982 431.716 70.8869 432.983 72.2643C434.305 73.5866 434.966 75.3773 434.966 77.6363C434.966 79.8402 434.305 81.6033 432.983 82.9256C431.716 84.1928 429.952 84.8265 427.693 84.8265Z" fill="white"/>
</g>
<rect id="Rectangle 3" y="43.1181" width="448" height="66" fill="#F7E8A4"/>
</g>
<g id="Frame 10">
<g id="Frame 1_2">
<path id="PROJECTS._2" d="M13.401 111V50.6687H33.1533C37.0652 50.6687 40.4537 51.4125 43.3187 52.9001C46.2389 54.3877 48.4703 56.509 50.013 59.2638C51.6108 61.9636 52.4098 65.1592 52.4098 68.8507C52.4098 72.4871 51.6108 75.6827 50.013 78.4376C48.4152 81.1925 46.1838 83.3137 43.3187 84.8013C40.4537 86.2889 37.0652 87.0328 33.1533 87.0328H22.3267V111H13.401ZM22.3267 79.0161H33.1533C36.2387 79.0161 38.6906 78.107 40.5088 76.2888C42.3821 74.4155 43.3187 71.9361 43.3187 68.8507C43.3187 65.7102 42.3821 63.2308 40.5088 61.4126C38.6906 59.5944 36.2387 58.6853 33.1533 58.6853H22.3267V79.0161ZM62.9561 111V50.6687H81.882C85.6837 50.6687 88.9895 51.4125 91.7995 52.9001C94.6094 54.3326 96.7857 56.3712 98.3285 59.0159C99.9263 61.6605 100.725 64.7735 100.725 68.3548C100.725 72.3769 99.6783 75.8756 97.5846 78.8508C95.5461 81.771 92.7636 83.8371 89.2374 85.0493L101.552 111H91.3862L80.3943 86.2063H71.8818V111H62.9561ZM71.8818 78.355H81.882C84.8572 78.355 87.2264 77.4734 88.9895 75.7103C90.7526 73.8921 91.6342 71.4954 91.6342 68.5201C91.6342 65.4347 90.7526 63.0104 88.9895 61.2473C87.2264 59.4842 84.8572 58.6026 81.882 58.6026H71.8818V78.355ZM130.363 111.826C126.616 111.826 123.365 111.138 120.611 109.76C117.911 108.328 115.817 106.289 114.329 103.645C112.897 100.945 112.181 97.8042 112.181 94.2229V67.4457C112.181 63.8093 112.897 60.6688 114.329 58.0241C115.817 55.3795 117.911 53.3684 120.611 51.991C123.365 50.5585 126.616 49.8422 130.363 49.8422C134.109 49.8422 137.332 50.5585 140.032 51.991C142.787 53.3684 144.881 55.3795 146.313 58.0241C147.801 60.6688 148.545 63.7818 148.545 67.3631V94.2229C148.545 97.8042 147.801 100.945 146.313 103.645C144.881 106.289 142.787 108.328 140.032 109.76C137.332 111.138 134.109 111.826 130.363 111.826ZM130.363 103.892C133.393 103.892 135.68 103.066 137.222 101.413C138.82 99.7051 139.619 97.3084 139.619 94.2229V67.4457C139.619 64.3052 138.82 61.9085 137.222 60.2556C135.68 58.6026 133.393 57.7762 130.363 57.7762C127.387 57.7762 125.101 58.6026 123.503 60.2556C121.905 61.9085 121.106 64.3052 121.106 67.4457V94.2229C121.106 97.3084 121.905 99.7051 123.503 101.413C125.101 103.066 127.387 103.892 130.363 103.892ZM177.438 111.826C171.488 111.826 166.805 110.174 163.389 106.868C159.973 103.562 158.265 99.0715 158.265 93.3965H167.108C167.108 96.7574 168.017 99.3745 169.835 101.248C171.653 103.066 174.188 103.975 177.438 103.975C180.689 103.975 183.224 103.066 185.042 101.248C186.86 99.3745 187.769 96.7849 187.769 93.4791V58.8506H173.554V50.6687H196.612V93.4791C196.612 99.1541 194.877 103.645 191.406 106.95C187.99 110.201 183.334 111.826 177.438 111.826ZM212.448 111V50.6687H247.903V58.6026H221.208V75.7103H245.01V83.5616H221.208V103.066H247.903V111H212.448ZM279.359 111.826C275.612 111.826 272.334 111.138 269.524 109.76C266.769 108.328 264.62 106.289 263.077 103.645C261.59 100.945 260.846 97.8042 260.846 94.2229V67.4457C260.846 63.8093 261.59 60.6688 263.077 58.0241C264.62 55.3795 266.769 53.3684 269.524 51.991C272.334 50.5585 275.612 49.8422 279.359 49.8422C283.105 49.8422 286.356 50.5585 289.111 51.991C291.866 53.4235 293.987 55.4621 295.475 58.1068C297.017 60.6963 297.789 63.8093 297.789 67.4457H288.863C288.863 64.3052 288.036 61.9085 286.384 60.2556C284.731 58.6026 282.389 57.7762 279.359 57.7762C276.328 57.7762 273.959 58.6026 272.251 60.2556C270.598 61.9085 269.772 64.2776 269.772 67.3631V94.2229C269.772 97.3084 270.598 99.7051 272.251 101.413C273.959 103.066 276.328 103.892 279.359 103.892C282.389 103.892 284.731 103.066 286.384 101.413C288.036 99.7051 288.863 97.3084 288.863 94.2229H297.789C297.789 97.8042 297.017 100.917 295.475 103.562C293.987 106.207 291.866 108.245 289.111 109.678C286.356 111.11 283.105 111.826 279.359 111.826ZM324.12 111V58.8506H308.004V50.586H349.162V58.8506H333.046V111H324.12ZM378.386 111.826C374.309 111.826 370.81 111.165 367.89 109.843C364.97 108.466 362.711 106.537 361.113 104.058C359.515 101.523 358.717 98.5205 358.717 95.0494H367.56C367.56 97.8042 368.524 99.9806 370.452 101.578C372.381 103.121 375.053 103.892 378.469 103.892C381.665 103.892 384.171 103.121 385.99 101.578C387.808 100.036 388.717 97.9144 388.717 95.2147C388.717 92.9557 388.083 90.9997 386.816 89.3468C385.604 87.6939 383.841 86.5644 381.527 85.9584L373.923 83.7269C369.516 82.4597 366.1 80.3109 363.675 77.2806C361.306 74.1951 360.122 70.5312 360.122 66.2887C360.122 62.9829 360.865 60.0903 362.353 57.6109C363.841 55.1315 365.962 53.2031 368.717 51.8257C371.472 50.4483 374.722 49.7596 378.469 49.7596C383.979 49.7596 388.386 51.2472 391.692 54.2224C395.053 57.1977 396.761 61.1922 396.816 66.206H387.89C387.89 63.5614 387.036 61.4952 385.328 60.0076C383.676 58.4649 381.334 57.6935 378.304 57.6935C375.383 57.6935 373.097 58.4098 371.444 59.8423C369.791 61.2198 368.965 63.1757 368.965 65.7102C368.965 67.9692 369.571 69.9251 370.783 71.578C372.05 73.2309 373.841 74.388 376.155 75.0491L383.841 77.3632C388.249 78.5753 391.637 80.7241 394.006 83.8096C396.375 86.895 397.56 90.5865 397.56 94.8841C397.56 98.245 396.761 101.22 395.163 103.81C393.565 106.344 391.334 108.328 388.469 109.76C385.604 111.138 382.243 111.826 378.386 111.826ZM427.693 111.826C425.49 111.826 423.726 111.193 422.404 109.926C421.082 108.603 420.421 106.84 420.421 104.636C420.421 102.377 421.082 100.587 422.404 99.2643C423.726 97.8869 425.49 97.1982 427.693 97.1982C429.952 97.1982 431.716 97.8869 432.983 99.2643C434.305 100.587 434.966 102.377 434.966 104.636C434.966 106.84 434.305 108.603 432.983 109.926C431.716 111.193 429.952 111.826 427.693 111.826Z" fill="black" fill-opacity="0.8"/>
</g>
<rect id="Rectangle 3_2" y="70.1181" width="448" height="66" fill="#F7E8A4"/>
</g>
<g id="Frame 7">
<path id="PROJECTS._3" d="M13.401 138.118V77.7868H33.1533C37.0652 77.7868 40.4537 78.5306 43.3187 80.0182C46.2389 81.5058 48.4703 83.6271 50.013 86.3819C51.6108 89.0817 52.4098 92.2773 52.4098 95.9688C52.4098 99.6052 51.6108 102.801 50.013 105.556C48.4152 108.311 46.1838 110.432 43.3187 111.919C40.4537 113.407 37.0652 114.151 33.1533 114.151H22.3267V138.118H13.401ZM22.3267 106.134H33.1533C36.2387 106.134 38.6906 105.225 40.5088 103.407C42.3821 101.534 43.3187 99.0542 43.3187 95.9688C43.3187 92.8283 42.3821 90.3489 40.5088 88.5307C38.6906 86.7125 36.2387 85.8034 33.1533 85.8034H22.3267V106.134ZM62.9561 138.118V77.7868H81.882C85.6837 77.7868 88.9895 78.5306 91.7995 80.0182C94.6094 81.4507 96.7857 83.4893 98.3285 86.134C99.9263 88.7786 100.725 91.8916 100.725 95.4729C100.725 99.495 99.6783 102.994 97.5846 105.969C95.5461 108.889 92.7636 110.955 89.2374 112.167L101.552 138.118H91.3862L80.3943 113.324H71.8818V138.118H62.9561ZM71.8818 105.473H81.882C84.8572 105.473 87.2264 104.592 88.9895 102.828C90.7526 101.01 91.6342 98.6135 91.6342 95.6382C91.6342 92.5528 90.7526 90.1285 88.9895 88.3654C87.2264 86.6023 84.8572 85.7207 81.882 85.7207H71.8818V105.473ZM130.363 138.945C126.616 138.945 123.365 138.256 120.611 136.878C117.911 135.446 115.817 133.407 114.329 130.763C112.897 128.063 112.181 124.922 112.181 121.341V94.5638C112.181 90.9274 112.897 87.7869 114.329 85.1422C115.817 82.4976 117.911 80.4865 120.611 79.1091C123.365 77.6766 126.616 76.9603 130.363 76.9603C134.109 76.9603 137.332 77.6766 140.032 79.1091C142.787 80.4865 144.881 82.4976 146.313 85.1422C147.801 87.7869 148.545 90.8999 148.545 94.4812V121.341C148.545 124.922 147.801 128.063 146.313 130.763C144.881 133.407 142.787 135.446 140.032 136.878C137.332 138.256 134.109 138.945 130.363 138.945ZM130.363 131.011C133.393 131.011 135.68 130.184 137.222 128.531C138.82 126.823 139.619 124.426 139.619 121.341V94.5638C139.619 91.4233 138.82 89.0266 137.222 87.3737C135.68 85.7207 133.393 84.8943 130.363 84.8943C127.387 84.8943 125.101 85.7207 123.503 87.3737C121.905 89.0266 121.106 91.4233 121.106 94.5638V121.341C121.106 124.426 121.905 126.823 123.503 128.531C125.101 130.184 127.387 131.011 130.363 131.011ZM177.438 138.945C171.488 138.945 166.805 137.292 163.389 133.986C159.973 130.68 158.265 126.19 158.265 120.515H167.108C167.108 123.875 168.017 126.493 169.835 128.366C171.653 130.184 174.188 131.093 177.438 131.093C180.689 131.093 183.224 130.184 185.042 128.366C186.86 126.493 187.769 123.903 187.769 120.597V85.9687H173.554V77.7868H196.612V120.597C196.612 126.272 194.877 130.763 191.406 134.068C187.99 137.319 183.334 138.945 177.438 138.945ZM212.448 138.118V77.7868H247.903V85.7207H221.208V102.828H245.01V110.68H221.208V130.184H247.903V138.118H212.448ZM279.359 138.945C275.612 138.945 272.334 138.256 269.524 136.878C266.769 135.446 264.62 133.407 263.077 130.763C261.59 128.063 260.846 124.922 260.846 121.341V94.5638C260.846 90.9274 261.59 87.7869 263.077 85.1422C264.62 82.4976 266.769 80.4865 269.524 79.1091C272.334 77.6766 275.612 76.9603 279.359 76.9603C283.105 76.9603 286.356 77.6766 289.111 79.1091C291.866 80.5416 293.987 82.5802 295.475 85.2249C297.017 87.8144 297.789 90.9274 297.789 94.5638H288.863C288.863 91.4233 288.036 89.0266 286.384 87.3737C284.731 85.7207 282.389 84.8943 279.359 84.8943C276.328 84.8943 273.959 85.7207 272.251 87.3737C270.598 89.0266 269.772 91.3957 269.772 94.4812V121.341C269.772 124.426 270.598 126.823 272.251 128.531C273.959 130.184 276.328 131.011 279.359 131.011C282.389 131.011 284.731 130.184 286.384 128.531C288.036 126.823 288.863 124.426 288.863 121.341H297.789C297.789 124.922 297.017 128.035 295.475 130.68C293.987 133.325 291.866 135.363 289.111 136.796C286.356 138.228 283.105 138.945 279.359 138.945ZM324.12 138.118V85.9687H308.004V77.7041H349.162V85.9687H333.046V138.118H324.12ZM378.386 138.945C374.309 138.945 370.81 138.283 367.89 136.961C364.97 135.584 362.711 133.655 361.113 131.176C359.515 128.641 358.717 125.639 358.717 122.167H367.56C367.56 124.922 368.524 127.099 370.452 128.696C372.381 130.239 375.053 131.011 378.469 131.011C381.665 131.011 384.171 130.239 385.99 128.696C387.808 127.154 388.717 125.033 388.717 122.333C388.717 120.074 388.083 118.118 386.816 116.465C385.604 114.812 383.841 113.683 381.527 113.076L373.923 110.845C369.516 109.578 366.1 107.429 363.675 104.399C361.306 101.313 360.122 97.6493 360.122 93.4068C360.122 90.101 360.865 87.2084 362.353 84.729C363.841 82.2496 365.962 80.3212 368.717 78.9438C371.472 77.5664 374.722 76.8777 378.469 76.8777C383.979 76.8777 388.386 78.3653 391.692 81.3405C395.053 84.3158 396.761 88.3103 396.816 93.3241H387.89C387.89 90.6795 387.036 88.6133 385.328 87.1257C383.676 85.583 381.334 84.8116 378.304 84.8116C375.383 84.8116 373.097 85.5279 371.444 86.9604C369.791 88.3379 368.965 90.2938 368.965 92.8283C368.965 95.0873 369.571 97.0432 370.783 98.6961C372.05 100.349 373.841 101.506 376.155 102.167L383.841 104.481C388.249 105.693 391.637 107.842 394.006 110.928C396.375 114.013 397.56 117.705 397.56 122.002C397.56 125.363 396.761 128.338 395.163 130.928C393.565 133.462 391.334 135.446 388.469 136.878C385.604 138.256 382.243 138.945 378.386 138.945ZM427.693 138.945C425.49 138.945 423.726 138.311 422.404 137.044C421.082 135.721 420.421 133.958 420.421 131.754C420.421 129.495 421.082 127.705 422.404 126.382C423.726 125.005 425.49 124.316 427.693 124.316C429.952 124.316 431.716 125.005 432.983 126.382C434.305 127.705 434.966 129.495 434.966 131.754C434.966 133.958 434.305 135.721 432.983 137.044C431.716 138.311 429.952 138.945 427.693 138.945Z" fill="black"/>
</g>
</g>
</svg>
