<svg width="559" height="164" viewBox="0 0 559 164" fill="none" xmlns="http://www.w3.org/2000/svg">
<g id="Frame 18">
<g id="Frame 9">
<g id="Frame 1">
<path id="TECH STACK." d="M27.2345 84V31.8506H11.1186V23.586H52.2761V31.8506H36.1602V84H27.2345ZM64.2274 84V23.6687H99.6824V31.6026H72.9879V48.7103H96.7898V56.5616H72.9879V76.066H99.6824V84H64.2274ZM131.138 84.8265C127.392 84.8265 124.113 84.1377 121.303 82.7603C118.548 81.3278 116.4 79.2892 114.857 76.6445C113.369 73.9448 112.626 70.8042 112.626 67.2229V40.4457C112.626 36.8093 113.369 33.6688 114.857 31.0241C116.4 28.3795 118.548 26.3684 121.303 24.991C124.113 23.5585 127.392 22.8422 131.138 22.8422C134.885 22.8422 138.135 23.5585 140.89 24.991C143.645 26.4235 145.766 28.4621 147.254 31.1068C148.797 33.6963 149.568 36.8093 149.568 40.4457H140.642C140.642 37.3052 139.816 34.9085 138.163 33.2556C136.51 31.6026 134.168 30.7762 131.138 30.7762C128.108 30.7762 125.739 31.6026 124.031 33.2556C122.378 34.9085 121.551 37.2776 121.551 40.3631V67.2229C121.551 70.3084 122.378 72.7051 124.031 74.4131C125.739 76.066 128.108 76.8925 131.138 76.8925C134.168 76.8925 136.51 76.066 138.163 74.4131C139.816 72.7051 140.642 70.3084 140.642 67.2229H149.568C149.568 70.8042 148.797 73.9172 147.254 76.5619C145.766 79.2066 143.645 81.2451 140.89 82.6777C138.135 84.1102 134.885 84.8265 131.138 84.8265ZM162.594 84V23.6687H171.52V48.6277H189.206V23.6687H198.132V84H189.206V56.8922H171.52V84H162.594ZM279.721 84.8265C275.644 84.8265 272.145 84.1653 269.225 82.843C266.305 81.4655 264.046 79.5371 262.448 77.0578C260.85 74.5233 260.051 71.5205 260.051 68.0494H268.894C268.894 70.8042 269.858 72.9806 271.787 74.5784C273.715 76.1211 276.387 76.8925 279.803 76.8925C282.999 76.8925 285.506 76.1211 287.324 74.5784C289.142 73.0357 290.052 70.9144 290.052 68.2147C290.052 65.9557 289.418 63.9997 288.151 62.3468C286.939 60.6939 285.175 59.5644 282.861 58.9584L275.258 56.7269C270.85 55.4597 267.434 53.3109 265.01 50.2806C262.641 47.1951 261.456 43.5312 261.456 39.2887C261.456 35.9829 262.2 33.0903 263.688 30.6109C265.175 28.1315 267.296 26.2031 270.051 24.8257C272.806 23.4483 276.057 22.7596 279.803 22.7596C285.313 22.7596 289.721 24.2472 293.027 27.2224C296.388 30.1977 298.096 34.1922 298.151 39.206H289.225C289.225 36.5614 288.371 34.4952 286.663 33.0076C285.01 31.4649 282.669 30.6935 279.638 30.6935C276.718 30.6935 274.432 31.4098 272.779 32.8423C271.126 34.2198 270.299 36.1757 270.299 38.7102C270.299 40.9692 270.905 42.9251 272.117 44.578C273.385 46.2309 275.175 47.388 277.489 48.0491L285.175 50.3632C289.583 51.5753 292.972 53.7241 295.341 56.8096C297.71 59.895 298.895 63.5865 298.895 67.8841C298.895 71.245 298.096 74.2203 296.498 76.8098C294.9 79.3443 292.669 81.3278 289.804 82.7603C286.939 84.1377 283.578 84.8265 279.721 84.8265ZM324.565 84V31.8506H308.449V23.586H349.607V31.8506H333.491V84H324.565ZM357.343 84L372.715 23.6687H384.451L399.823 84H390.815L387.178 68.7106H370.071L366.434 84H357.343ZM371.724 61.3551H385.443L381.31 43.9168C380.594 40.8314 379.988 38.1592 379.492 35.9002C379.051 33.5861 378.748 32.0159 378.583 31.1894C378.418 32.0159 378.115 33.5861 377.674 35.9002C377.233 38.1592 376.627 40.8039 375.856 43.8342L371.724 61.3551ZM428.469 84.8265C424.722 84.8265 421.444 84.1377 418.634 82.7603C415.879 81.3278 413.73 79.2892 412.188 76.6445C410.7 73.9448 409.956 70.8042 409.956 67.2229V40.4457C409.956 36.8093 410.7 33.6688 412.188 31.0241C413.73 28.3795 415.879 26.3684 418.634 24.991C421.444 23.5585 424.722 22.8422 428.469 22.8422C432.215 22.8422 435.466 23.5585 438.221 24.991C440.976 26.4235 443.097 28.4621 444.585 31.1068C446.127 33.6963 446.899 36.8093 446.899 40.4457H437.973C437.973 37.3052 437.147 34.9085 435.494 33.2556C433.841 31.6026 431.499 30.7762 428.469 30.7762C425.439 30.7762 423.069 31.6026 421.361 33.2556C419.708 34.9085 418.882 37.2776 418.882 40.3631V67.2229C418.882 70.3084 419.708 72.7051 421.361 74.4131C423.069 76.066 425.439 76.8925 428.469 76.8925C431.499 76.8925 433.841 76.066 435.494 74.4131C437.147 72.7051 437.973 70.3084 437.973 67.2229H446.899C446.899 70.8042 446.127 73.9172 444.585 76.5619C443.097 79.2066 440.976 81.2451 438.221 82.6777C435.466 84.1102 432.215 84.8265 428.469 84.8265ZM459.842 84V23.6687H468.768V48.7929H476.784L489.098 23.6687H498.851L484.636 52.5946L499.512 84H489.512L476.619 56.8096H468.768V84H459.842ZM527.249 84.8265C525.045 84.8265 523.282 84.1928 521.959 82.9256C520.637 81.6033 519.976 79.8402 519.976 77.6363C519.976 75.3773 520.637 73.5866 521.959 72.2643C523.282 70.8869 525.045 70.1982 527.249 70.1982C529.507 70.1982 531.271 70.8869 532.538 72.2643C533.86 73.5866 534.521 75.3773 534.521 77.6363C534.521 79.8402 533.86 81.6033 532.538 82.9256C531.271 84.1928 529.507 84.8265 527.249 84.8265Z" fill="white"/>
</g>
<rect id="Rectangle 3" y="43.1181" width="550" height="66" fill="#C46AF0"/>
</g>
<g id="Frame 10">
<g id="Frame 1_2">
<path id="TECH STACK._2" d="M27.2345 111V58.8506H11.1186V50.586H52.2761V58.8506H36.1602V111H27.2345ZM64.2274 111V50.6687H99.6824V58.6026H72.9879V75.7103H96.7898V83.5616H72.9879V103.066H99.6824V111H64.2274ZM131.138 111.826C127.392 111.826 124.113 111.138 121.303 109.76C118.548 108.328 116.4 106.289 114.857 103.645C113.369 100.945 112.626 97.8042 112.626 94.2229V67.4457C112.626 63.8093 113.369 60.6688 114.857 58.0241C116.4 55.3795 118.548 53.3684 121.303 51.991C124.113 50.5585 127.392 49.8422 131.138 49.8422C134.885 49.8422 138.135 50.5585 140.89 51.991C143.645 53.4235 145.766 55.4621 147.254 58.1068C148.797 60.6963 149.568 63.8093 149.568 67.4457H140.642C140.642 64.3052 139.816 61.9085 138.163 60.2556C136.51 58.6026 134.168 57.7762 131.138 57.7762C128.108 57.7762 125.739 58.6026 124.031 60.2556C122.378 61.9085 121.551 64.2776 121.551 67.3631V94.2229C121.551 97.3084 122.378 99.7051 124.031 101.413C125.739 103.066 128.108 103.892 131.138 103.892C134.168 103.892 136.51 103.066 138.163 101.413C139.816 99.7051 140.642 97.3084 140.642 94.2229H149.568C149.568 97.8042 148.797 100.917 147.254 103.562C145.766 106.207 143.645 108.245 140.89 109.678C138.135 111.11 134.885 111.826 131.138 111.826ZM162.594 111V50.6687H171.52V75.6277H189.206V50.6687H198.132V111H189.206V83.8922H171.52V111H162.594ZM279.721 111.826C275.644 111.826 272.145 111.165 269.225 109.843C266.305 108.466 264.046 106.537 262.448 104.058C260.85 101.523 260.051 98.5205 260.051 95.0494H268.894C268.894 97.8042 269.858 99.9806 271.787 101.578C273.715 103.121 276.387 103.892 279.803 103.892C282.999 103.892 285.506 103.121 287.324 101.578C289.142 100.036 290.052 97.9144 290.052 95.2147C290.052 92.9557 289.418 90.9997 288.151 89.3468C286.939 87.6939 285.175 86.5644 282.861 85.9584L275.258 83.7269C270.85 82.4597 267.434 80.3109 265.01 77.2806C262.641 74.1951 261.456 70.5312 261.456 66.2887C261.456 62.9829 262.2 60.0903 263.688 57.6109C265.175 55.1315 267.296 53.2031 270.051 51.8257C272.806 50.4483 276.057 49.7596 279.803 49.7596C285.313 49.7596 289.721 51.2472 293.027 54.2224C296.388 57.1977 298.096 61.1922 298.151 66.206H289.225C289.225 63.5614 288.371 61.4952 286.663 60.0076C285.01 58.4649 282.669 57.6935 279.638 57.6935C276.718 57.6935 274.432 58.4098 272.779 59.8423C271.126 61.2198 270.299 63.1757 270.299 65.7102C270.299 67.9692 270.905 69.9251 272.117 71.578C273.385 73.2309 275.175 74.388 277.489 75.0491L285.175 77.3632C289.583 78.5753 292.972 80.7241 295.341 83.8096C297.71 86.895 298.895 90.5865 298.895 94.8841C298.895 98.245 298.096 101.22 296.498 103.81C294.9 106.344 292.669 108.328 289.804 109.76C286.939 111.138 283.578 111.826 279.721 111.826ZM324.565 111V58.8506H308.449V50.586H349.607V58.8506H333.491V111H324.565ZM357.343 111L372.715 50.6687H384.451L399.823 111H390.815L387.178 95.7106H370.071L366.434 111H357.343ZM371.724 88.3551H385.443L381.31 70.9168C380.594 67.8314 379.988 65.1592 379.492 62.9002C379.051 60.5861 378.748 59.0159 378.583 58.1894C378.418 59.0159 378.115 60.5861 377.674 62.9002C377.233 65.1592 376.627 67.8039 375.856 70.8342L371.724 88.3551ZM428.469 111.826C424.722 111.826 421.444 111.138 418.634 109.76C415.879 108.328 413.73 106.289 412.188 103.645C410.7 100.945 409.956 97.8042 409.956 94.2229V67.4457C409.956 63.8093 410.7 60.6688 412.188 58.0241C413.73 55.3795 415.879 53.3684 418.634 51.991C421.444 50.5585 424.722 49.8422 428.469 49.8422C432.215 49.8422 435.466 50.5585 438.221 51.991C440.976 53.4235 443.097 55.4621 444.585 58.1068C446.127 60.6963 446.899 63.8093 446.899 67.4457H437.973C437.973 64.3052 437.147 61.9085 435.494 60.2556C433.841 58.6026 431.499 57.7762 428.469 57.7762C425.439 57.7762 423.069 58.6026 421.361 60.2556C419.708 61.9085 418.882 64.2776 418.882 67.3631V94.2229C418.882 97.3084 419.708 99.7051 421.361 101.413C423.069 103.066 425.439 103.892 428.469 103.892C431.499 103.892 433.841 103.066 435.494 101.413C437.147 99.7051 437.973 97.3084 437.973 94.2229H446.899C446.899 97.8042 446.127 100.917 444.585 103.562C443.097 106.207 440.976 108.245 438.221 109.678C435.466 111.11 432.215 111.826 428.469 111.826ZM459.842 111V50.6687H468.768V75.7929H476.784L489.098 50.6687H498.851L484.636 79.5946L499.512 111H489.512L476.619 83.8096H468.768V111H459.842ZM527.249 111.826C525.045 111.826 523.282 111.193 521.959 109.926C520.637 108.603 519.976 106.84 519.976 104.636C519.976 102.377 520.637 100.587 521.959 99.2643C523.282 97.8869 525.045 97.1982 527.249 97.1982C529.507 97.1982 531.271 97.8869 532.538 99.2643C533.86 100.587 534.521 102.377 534.521 104.636C534.521 106.84 533.86 108.603 532.538 109.926C531.271 111.193 529.507 111.826 527.249 111.826Z" fill="black" fill-opacity="0.8"/>
</g>
<rect id="Rectangle 3_2" y="70.1181" width="550" height="66" fill="#C46AF0"/>
</g>
<g id="Frame 7">
<path id="TECH STACK._3" d="M27.2345 138.118V85.9687H11.1186V77.7041H52.2761V85.9687H36.1602V138.118H27.2345ZM64.2274 138.118V77.7868H99.6824V85.7207H72.9879V102.828H96.7898V110.68H72.9879V130.184H99.6824V138.118H64.2274ZM131.138 138.945C127.392 138.945 124.113 138.256 121.303 136.878C118.548 135.446 116.4 133.407 114.857 130.763C113.369 128.063 112.626 124.922 112.626 121.341V94.5638C112.626 90.9274 113.369 87.7869 114.857 85.1422C116.4 82.4976 118.548 80.4865 121.303 79.1091C124.113 77.6766 127.392 76.9603 131.138 76.9603C134.885 76.9603 138.135 77.6766 140.89 79.1091C143.645 80.5416 145.766 82.5802 147.254 85.2249C148.797 87.8144 149.568 90.9274 149.568 94.5638H140.642C140.642 91.4233 139.816 89.0266 138.163 87.3737C136.51 85.7207 134.168 84.8943 131.138 84.8943C128.108 84.8943 125.739 85.7207 124.031 87.3737C122.378 89.0266 121.551 91.3957 121.551 94.4812V121.341C121.551 124.426 122.378 126.823 124.031 128.531C125.739 130.184 128.108 131.011 131.138 131.011C134.168 131.011 136.51 130.184 138.163 128.531C139.816 126.823 140.642 124.426 140.642 121.341H149.568C149.568 124.922 148.797 128.035 147.254 130.68C145.766 133.325 143.645 135.363 140.89 136.796C138.135 138.228 134.885 138.945 131.138 138.945ZM162.594 138.118V77.7868H171.52V102.746H189.206V77.7868H198.132V138.118H189.206V111.01H171.52V138.118H162.594ZM279.721 138.945C275.644 138.945 272.145 138.283 269.225 136.961C266.305 135.584 264.046 133.655 262.448 131.176C260.85 128.641 260.051 125.639 260.051 122.167H268.894C268.894 124.922 269.858 127.099 271.787 128.696C273.715 130.239 276.387 131.011 279.803 131.011C282.999 131.011 285.506 130.239 287.324 128.696C289.142 127.154 290.052 125.033 290.052 122.333C290.052 120.074 289.418 118.118 288.151 116.465C286.939 114.812 285.175 113.683 282.861 113.076L275.258 110.845C270.85 109.578 267.434 107.429 265.01 104.399C262.641 101.313 261.456 97.6493 261.456 93.4068C261.456 90.101 262.2 87.2084 263.688 84.729C265.175 82.2496 267.296 80.3212 270.051 78.9438C272.806 77.5664 276.057 76.8777 279.803 76.8777C285.313 76.8777 289.721 78.3653 293.027 81.3405C296.388 84.3158 298.096 88.3103 298.151 93.3241H289.225C289.225 90.6795 288.371 88.6133 286.663 87.1257C285.01 85.583 282.669 84.8116 279.638 84.8116C276.718 84.8116 274.432 85.5279 272.779 86.9604C271.126 88.3379 270.299 90.2938 270.299 92.8283C270.299 95.0873 270.905 97.0432 272.117 98.6961C273.385 100.349 275.175 101.506 277.489 102.167L285.175 104.481C289.583 105.693 292.972 107.842 295.341 110.928C297.71 114.013 298.895 117.705 298.895 122.002C298.895 125.363 298.096 128.338 296.498 130.928C294.9 133.462 292.669 135.446 289.804 136.878C286.939 138.256 283.578 138.945 279.721 138.945ZM324.565 138.118V85.9687H308.449V77.7041H349.607V85.9687H333.491V138.118H324.565ZM357.343 138.118L372.715 77.7868H384.451L399.823 138.118H390.815L387.178 122.829H370.071L366.434 138.118H357.343ZM371.724 115.473H385.443L381.31 98.035C380.594 94.9495 379.988 92.2773 379.492 90.0183C379.051 87.7042 378.748 86.134 378.583 85.3075C378.418 86.134 378.115 87.7042 377.674 90.0183C377.233 92.2773 376.627 94.922 375.856 97.9523L371.724 115.473ZM428.469 138.945C424.722 138.945 421.444 138.256 418.634 136.878C415.879 135.446 413.73 133.407 412.188 130.763C410.7 128.063 409.956 124.922 409.956 121.341V94.5638C409.956 90.9274 410.7 87.7869 412.188 85.1422C413.73 82.4976 415.879 80.4865 418.634 79.1091C421.444 77.6766 424.722 76.9603 428.469 76.9603C432.215 76.9603 435.466 77.6766 438.221 79.1091C440.976 80.5416 443.097 82.5802 444.585 85.2249C446.127 87.8144 446.899 90.9274 446.899 94.5638H437.973C437.973 91.4233 437.147 89.0266 435.494 87.3737C433.841 85.7207 431.499 84.8943 428.469 84.8943C425.439 84.8943 423.069 85.7207 421.361 87.3737C419.708 89.0266 418.882 91.3957 418.882 94.4812V121.341C418.882 124.426 419.708 126.823 421.361 128.531C423.069 130.184 425.439 131.011 428.469 131.011C431.499 131.011 433.841 130.184 435.494 128.531C437.147 126.823 437.973 124.426 437.973 121.341H446.899C446.899 124.922 446.127 128.035 444.585 130.68C443.097 133.325 440.976 135.363 438.221 136.796C435.466 138.228 432.215 138.945 428.469 138.945ZM459.842 138.118V77.7868H468.768V102.911H476.784L489.098 77.7868H498.851L484.636 106.713L499.512 138.118H489.512L476.619 110.928H468.768V138.118H459.842ZM527.249 138.945C525.045 138.945 523.282 138.311 521.959 137.044C520.637 135.721 519.976 133.958 519.976 131.754C519.976 129.495 520.637 127.705 521.959 126.382C523.282 125.005 525.045 124.316 527.249 124.316C529.507 124.316 531.271 125.005 532.538 126.382C533.86 127.705 534.521 129.495 534.521 131.754C534.521 133.958 533.86 135.721 532.538 137.044C531.271 138.311 529.507 138.945 527.249 138.945Z" fill="black"/>
</g>
</g>
</svg>
